<?xml version="1.0" encoding="utf-8" standalone="no"?>
<!DOCTYPE svg PUBLIC "-//W3C//DTD SVG 1.1//EN"
  "http://www.w3.org/Graphics/SVG/1.1/DTD/svg11.dtd">
<!-- Created with matplotlib (http://matplotlib.org/) -->
<svg height="288pt" version="1.1" viewBox="0 0 1152 288" width="1152pt" xmlns="http://www.w3.org/2000/svg" xmlns:xlink="http://www.w3.org/1999/xlink">
 <defs>
  <style type="text/css">
*{stroke-linecap:butt;stroke-linejoin:round;}
  </style>
 </defs>
 <g id="figure_1">
  <g id="patch_1">
   <path d="M 0 288 
L 1152 288 
L 1152 0 
L 0 0 
z
" style="fill:#ffffff;"/>
  </g>
  <g id="axes_1">
   <g id="patch_2">
    <path d="M 144 252 
L 406.588235 252 
L 406.588235 34.56 
L 144 34.56 
z
" style="fill:#ffffff;"/>
   </g>
   <g id="PolyCollection_1">
    <path clip-path="url(#p54886bacc6)" d="M 155.935829 251.980179 
L 155.935829 252 
L 157.815487 252 
L 159.695145 252 
L 161.574803 252 
L 163.454461 252 
L 165.334119 252 
L 167.213777 252 
L 169.093436 252 
L 170.973094 252 
L 172.852752 252 
L 174.73241 252 
L 176.612068 252 
L 178.491726 252 
L 180.371384 252 
L 182.251042 252 
L 184.1307 252 
L 186.010358 252 
L 187.890016 252 
L 189.769675 252 
L 191.649333 252 
L 193.528991 252 
L 195.408649 252 
L 197.288307 252 
L 199.167965 252 
L 201.047623 252 
L 202.927281 252 
L 204.806939 252 
L 206.686597 252 
L 208.566255 252 
L 210.445914 252 
L 212.325572 252 
L 214.20523 252 
L 216.084888 252 
L 217.964546 252 
L 219.844204 252 
L 221.723862 252 
L 223.60352 252 
L 225.483178 252 
L 227.362836 252 
L 229.242494 252 
L 231.122153 252 
L 233.001811 252 
L 234.881469 252 
L 236.761127 252 
L 238.640785 252 
L 240.520443 252 
L 242.400101 252 
L 244.279759 252 
L 246.159417 252 
L 248.039075 252 
L 249.918733 252 
L 251.798392 252 
L 253.67805 252 
L 255.557708 252 
L 257.437366 252 
L 259.317024 252 
L 261.196682 252 
L 263.07634 252 
L 264.955998 252 
L 266.835656 252 
L 268.715314 252 
L 270.594972 252 
L 272.474631 252 
L 274.354289 252 
L 276.233947 252 
L 278.113605 252 
L 279.993263 252 
L 281.872921 252 
L 283.752579 252 
L 285.632237 252 
L 287.511895 252 
L 289.391553 252 
L 291.271211 252 
L 293.15087 252 
L 295.030528 252 
L 296.910186 252 
L 298.789844 252 
L 300.669502 252 
L 302.54916 252 
L 304.428818 252 
L 306.308476 252 
L 308.188134 252 
L 310.067792 252 
L 311.94745 252 
L 313.827109 252 
L 315.706767 252 
L 317.586425 252 
L 319.466083 252 
L 321.345741 252 
L 323.225399 252 
L 325.105057 252 
L 326.984715 252 
L 328.864373 252 
L 330.744031 252 
L 332.623689 252 
L 334.503348 252 
L 336.383006 252 
L 338.262664 252 
L 340.142322 252 
L 342.02198 252 
L 343.901638 252 
L 345.781296 252 
L 347.660954 252 
L 349.540612 252 
L 351.42027 252 
L 353.299928 252 
L 355.179587 252 
L 357.059245 252 
L 358.938903 252 
L 360.818561 252 
L 362.698219 252 
L 364.577877 252 
L 366.457535 252 
L 368.337193 252 
L 370.216851 252 
L 372.096509 252 
L 373.976167 252 
L 375.855826 252 
L 377.735484 252 
L 379.615142 252 
L 381.4948 252 
L 383.374458 252 
L 385.254116 252 
L 387.133774 252 
L 389.013432 252 
L 390.89309 252 
L 392.772748 252 
L 394.652406 252 
L 394.652406 251.981572 
L 394.652406 251.981572 
L 392.772748 251.971851 
L 390.89309 251.9481 
L 389.013432 251.904205 
L 387.133774 251.831603 
L 385.254116 251.720793 
L 383.374458 251.563667 
L 381.4948 251.356188 
L 379.615142 251.100301 
L 377.735484 250.803697 
L 375.855826 250.476553 
L 373.976167 250.125708 
L 372.096509 249.748344 
L 370.216851 249.328137 
L 368.337193 248.836106 
L 366.457535 248.236108 
L 364.577877 247.492217 
L 362.698219 246.573747 
L 360.818561 245.454722 
L 358.938903 244.107659 
L 357.059245 242.495021 
L 355.179587 240.56342 
L 353.299928 238.244495 
L 351.42027 235.462918 
L 349.540612 232.148071 
L 347.660954 228.243859 
L 345.781296 223.712144 
L 343.901638 218.529299 
L 342.02198 212.680403 
L 340.142322 206.158742 
L 338.262664 198.976909 
L 336.383006 191.189166 
L 334.503348 182.915226 
L 332.623689 174.348556 
L 330.744031 165.733469 
L 328.864373 157.3072 
L 326.984715 149.222328 
L 325.105057 141.481832 
L 323.225399 133.922568 
L 321.345741 126.267243 
L 319.466083 118.234551 
L 317.586425 109.666617 
L 315.706767 100.619314 
L 313.827109 91.373967 
L 311.94745 82.363327 
L 310.067792 74.043357 
L 308.188134 66.765133 
L 306.308476 60.697439 
L 304.428818 55.824159 
L 302.54916 52.006604 
L 300.669502 49.076207 
L 298.789844 46.916824 
L 296.910186 45.507171 
L 295.030528 44.914286 
L 293.15087 45.248435 
L 291.271211 46.601744 
L 289.391553 48.99462 
L 287.511895 52.347568 
L 285.632237 56.485227 
L 283.752579 61.168925 
L 281.872921 66.146992 
L 279.993263 71.209216 
L 278.113605 76.232371 
L 276.233947 81.205851 
L 274.354289 86.229726 
L 272.474631 91.482689 
L 270.594972 97.164955 
L 268.715314 103.429933 
L 266.835656 110.324533 
L 264.955998 117.757468 
L 263.07634 125.506517 
L 261.196682 133.262897 
L 259.317024 140.699361 
L 257.437366 147.543147 
L 255.557708 153.635898 
L 253.67805 158.967274 
L 251.798392 163.674258 
L 249.918733 168.003796 
L 248.039075 172.244405 
L 246.159417 176.642814 
L 244.279759 181.330913 
L 242.400101 186.289382 
L 240.520443 191.36342 
L 238.640785 196.325752 
L 236.761127 200.962154 
L 234.881469 205.14547 
L 233.001811 208.870302 
L 231.122153 212.238486 
L 229.242494 215.40604 
L 227.362836 218.516191 
L 225.483178 221.645551 
L 223.60352 224.782234 
L 221.723862 227.840245 
L 219.844204 230.700019 
L 217.964546 233.256088 
L 216.084888 235.452476 
L 214.20523 237.294158 
L 212.325572 238.834528 
L 210.445914 240.148848 
L 208.566255 241.307356 
L 206.686597 242.358508 
L 204.806939 243.325495 
L 202.927281 244.212513 
L 201.047623 245.014416 
L 199.167965 245.724657 
L 197.288307 246.339631 
L 195.408649 246.86016 
L 193.528991 247.291664 
L 191.649333 247.644092 
L 189.769675 247.931844 
L 187.890016 248.173497 
L 186.010358 248.390959 
L 184.1307 248.607664 
L 182.251042 248.845545 
L 180.371384 249.121017 
L 178.491726 249.440972 
L 176.612068 249.800381 
L 174.73241 250.182875 
L 172.852752 250.564607 
L 170.973094 250.920248 
L 169.093436 251.229016 
L 167.213777 251.478744 
L 165.334119 251.666939 
L 163.454461 251.799121 
L 161.574803 251.885609 
L 159.695145 251.938113 
L 157.815487 251.967088 
L 155.935829 251.980179 
z
" style="fill:#1f77b4;fill-opacity:0.25;"/>
   </g>
   <g id="matplotlib.axis_1">
    <g id="xtick_1">
     <g id="line2d_1">
      <defs>
       <path d="M 0 0 
L 0 3.5 
" id="mc2423cd297" style="stroke:#000000;stroke-width:0.8;"/>
      </defs>
      <g>
       <use style="stroke:#000000;stroke-width:0.8;" x="172.071768" xlink:href="#mc2423cd297" y="252"/>
      </g>
     </g>
     <g id="text_1">
      <!-- 0 -->
      <defs>
       <path d="M 31.78125 66.40625 
Q 24.171875 66.40625 20.328125 58.90625 
Q 16.5 51.421875 16.5 36.375 
Q 16.5 21.390625 20.328125 13.890625 
Q 24.171875 6.390625 31.78125 6.390625 
Q 39.453125 6.390625 43.28125 13.890625 
Q 47.125 21.390625 47.125 36.375 
Q 47.125 51.421875 43.28125 58.90625 
Q 39.453125 66.40625 31.78125 66.40625 
z
M 31.78125 74.21875 
Q 44.046875 74.21875 50.515625 64.515625 
Q 56.984375 54.828125 56.984375 36.375 
Q 56.984375 17.96875 50.515625 8.265625 
Q 44.046875 -1.421875 31.78125 -1.421875 
Q 19.53125 -1.421875 13.0625 8.265625 
Q 6.59375 17.96875 6.59375 36.375 
Q 6.59375 54.828125 13.0625 64.515625 
Q 19.53125 74.21875 31.78125 74.21875 
z
" id="DejaVuSans-30"/>
      </defs>
      <g transform="translate(168.890518 266.598437)scale(0.1 -0.1)">
       <use xlink:href="#DejaVuSans-30"/>
      </g>
     </g>
    </g>
    <g id="xtick_2">
     <g id="line2d_2">
      <g>
       <use style="stroke:#000000;stroke-width:0.8;" x="217.948368" xlink:href="#mc2423cd297" y="252"/>
      </g>
     </g>
     <g id="text_2">
      <!-- 200 -->
      <defs>
       <path d="M 19.1875 8.296875 
L 53.609375 8.296875 
L 53.609375 0 
L 7.328125 0 
L 7.328125 8.296875 
Q 12.9375 14.109375 22.625 23.890625 
Q 32.328125 33.6875 34.8125 36.53125 
Q 39.546875 41.84375 41.421875 45.53125 
Q 43.3125 49.21875 43.3125 52.78125 
Q 43.3125 58.59375 39.234375 62.25 
Q 35.15625 65.921875 28.609375 65.921875 
Q 23.96875 65.921875 18.8125 64.3125 
Q 13.671875 62.703125 7.8125 59.421875 
L 7.8125 69.390625 
Q 13.765625 71.78125 18.9375 73 
Q 24.125 74.21875 28.421875 74.21875 
Q 39.75 74.21875 46.484375 68.546875 
Q 53.21875 62.890625 53.21875 53.421875 
Q 53.21875 48.921875 51.53125 44.890625 
Q 49.859375 40.875 45.40625 35.40625 
Q 44.1875 33.984375 37.640625 27.21875 
Q 31.109375 20.453125 19.1875 8.296875 
z
" id="DejaVuSans-32"/>
      </defs>
      <g transform="translate(208.404618 266.598437)scale(0.1 -0.1)">
       <use xlink:href="#DejaVuSans-32"/>
       <use x="63.623047" xlink:href="#DejaVuSans-30"/>
       <use x="127.246094" xlink:href="#DejaVuSans-30"/>
      </g>
     </g>
    </g>
    <g id="xtick_3">
     <g id="line2d_3">
      <g>
       <use style="stroke:#000000;stroke-width:0.8;" x="263.824968" xlink:href="#mc2423cd297" y="252"/>
      </g>
     </g>
     <g id="text_3">
      <!-- 400 -->
      <defs>
       <path d="M 37.796875 64.3125 
L 12.890625 25.390625 
L 37.796875 25.390625 
z
M 35.203125 72.90625 
L 47.609375 72.90625 
L 47.609375 25.390625 
L 58.015625 25.390625 
L 58.015625 17.1875 
L 47.609375 17.1875 
L 47.609375 0 
L 37.796875 0 
L 37.796875 17.1875 
L 4.890625 17.1875 
L 4.890625 26.703125 
z
" id="DejaVuSans-34"/>
      </defs>
      <g transform="translate(254.281218 266.598437)scale(0.1 -0.1)">
       <use xlink:href="#DejaVuSans-34"/>
       <use x="63.623047" xlink:href="#DejaVuSans-30"/>
       <use x="127.246094" xlink:href="#DejaVuSans-30"/>
      </g>
     </g>
    </g>
    <g id="xtick_4">
     <g id="line2d_4">
      <g>
       <use style="stroke:#000000;stroke-width:0.8;" x="309.701568" xlink:href="#mc2423cd297" y="252"/>
      </g>
     </g>
     <g id="text_4">
      <!-- 600 -->
      <defs>
       <path d="M 33.015625 40.375 
Q 26.375 40.375 22.484375 35.828125 
Q 18.609375 31.296875 18.609375 23.390625 
Q 18.609375 15.53125 22.484375 10.953125 
Q 26.375 6.390625 33.015625 6.390625 
Q 39.65625 6.390625 43.53125 10.953125 
Q 47.40625 15.53125 47.40625 23.390625 
Q 47.40625 31.296875 43.53125 35.828125 
Q 39.65625 40.375 33.015625 40.375 
z
M 52.59375 71.296875 
L 52.59375 62.3125 
Q 48.875 64.0625 45.09375 64.984375 
Q 41.3125 65.921875 37.59375 65.921875 
Q 27.828125 65.921875 22.671875 59.328125 
Q 17.53125 52.734375 16.796875 39.40625 
Q 19.671875 43.65625 24.015625 45.921875 
Q 28.375 48.1875 33.59375 48.1875 
Q 44.578125 48.1875 50.953125 41.515625 
Q 57.328125 34.859375 57.328125 23.390625 
Q 57.328125 12.15625 50.6875 5.359375 
Q 44.046875 -1.421875 33.015625 -1.421875 
Q 20.359375 -1.421875 13.671875 8.265625 
Q 6.984375 17.96875 6.984375 36.375 
Q 6.984375 53.65625 15.1875 63.9375 
Q 23.390625 74.21875 37.203125 74.21875 
Q 40.921875 74.21875 44.703125 73.484375 
Q 48.484375 72.75 52.59375 71.296875 
z
" id="DejaVuSans-36"/>
      </defs>
      <g transform="translate(300.157818 266.598437)scale(0.1 -0.1)">
       <use xlink:href="#DejaVuSans-36"/>
       <use x="63.623047" xlink:href="#DejaVuSans-30"/>
       <use x="127.246094" xlink:href="#DejaVuSans-30"/>
      </g>
     </g>
    </g>
    <g id="xtick_5">
     <g id="line2d_5">
      <g>
       <use style="stroke:#000000;stroke-width:0.8;" x="355.578168" xlink:href="#mc2423cd297" y="252"/>
      </g>
     </g>
     <g id="text_5">
      <!-- 800 -->
      <defs>
       <path d="M 31.78125 34.625 
Q 24.75 34.625 20.71875 30.859375 
Q 16.703125 27.09375 16.703125 20.515625 
Q 16.703125 13.921875 20.71875 10.15625 
Q 24.75 6.390625 31.78125 6.390625 
Q 38.8125 6.390625 42.859375 10.171875 
Q 46.921875 13.96875 46.921875 20.515625 
Q 46.921875 27.09375 42.890625 30.859375 
Q 38.875 34.625 31.78125 34.625 
z
M 21.921875 38.8125 
Q 15.578125 40.375 12.03125 44.71875 
Q 8.5 49.078125 8.5 55.328125 
Q 8.5 64.0625 14.71875 69.140625 
Q 20.953125 74.21875 31.78125 74.21875 
Q 42.671875 74.21875 48.875 69.140625 
Q 55.078125 64.0625 55.078125 55.328125 
Q 55.078125 49.078125 51.53125 44.71875 
Q 48 40.375 41.703125 38.8125 
Q 48.828125 37.15625 52.796875 32.3125 
Q 56.78125 27.484375 56.78125 20.515625 
Q 56.78125 9.90625 50.3125 4.234375 
Q 43.84375 -1.421875 31.78125 -1.421875 
Q 19.734375 -1.421875 13.25 4.234375 
Q 6.78125 9.90625 6.78125 20.515625 
Q 6.78125 27.484375 10.78125 32.3125 
Q 14.796875 37.15625 21.921875 38.8125 
z
M 18.3125 54.390625 
Q 18.3125 48.734375 21.84375 45.5625 
Q 25.390625 42.390625 31.78125 42.390625 
Q 38.140625 42.390625 41.71875 45.5625 
Q 45.3125 48.734375 45.3125 54.390625 
Q 45.3125 60.0625 41.71875 63.234375 
Q 38.140625 66.40625 31.78125 66.40625 
Q 25.390625 66.40625 21.84375 63.234375 
Q 18.3125 60.0625 18.3125 54.390625 
z
" id="DejaVuSans-38"/>
      </defs>
      <g transform="translate(346.034418 266.598437)scale(0.1 -0.1)">
       <use xlink:href="#DejaVuSans-38"/>
       <use x="63.623047" xlink:href="#DejaVuSans-30"/>
       <use x="127.246094" xlink:href="#DejaVuSans-30"/>
      </g>
     </g>
    </g>
    <g id="xtick_6">
     <g id="line2d_6">
      <g>
       <use style="stroke:#000000;stroke-width:0.8;" x="401.454768" xlink:href="#mc2423cd297" y="252"/>
      </g>
     </g>
     <g id="text_6">
      <!-- 1000 -->
      <defs>
       <path d="M 12.40625 8.296875 
L 28.515625 8.296875 
L 28.515625 63.921875 
L 10.984375 60.40625 
L 10.984375 69.390625 
L 28.421875 72.90625 
L 38.28125 72.90625 
L 38.28125 8.296875 
L 54.390625 8.296875 
L 54.390625 0 
L 12.40625 0 
z
" id="DejaVuSans-31"/>
      </defs>
      <g transform="translate(388.729768 266.598437)scale(0.1 -0.1)">
       <use xlink:href="#DejaVuSans-31"/>
       <use x="63.623047" xlink:href="#DejaVuSans-30"/>
       <use x="127.246094" xlink:href="#DejaVuSans-30"/>
       <use x="190.869141" xlink:href="#DejaVuSans-30"/>
      </g>
     </g>
    </g>
   </g>
   <g id="matplotlib.axis_2">
    <g id="ytick_1">
     <g id="line2d_7">
      <defs>
       <path d="M 0 0 
L -3.5 0 
" id="md4acba1558" style="stroke:#000000;stroke-width:0.8;"/>
      </defs>
      <g>
       <use style="stroke:#000000;stroke-width:0.8;" x="144" xlink:href="#md4acba1558" y="252"/>
      </g>
     </g>
     <g id="text_7">
      <!-- 0.0000 -->
      <defs>
       <path d="M 10.6875 12.40625 
L 21 12.40625 
L 21 0 
L 10.6875 0 
z
" id="DejaVuSans-2e"/>
      </defs>
      <g transform="translate(102.009375 255.799219)scale(0.1 -0.1)">
       <use xlink:href="#DejaVuSans-30"/>
       <use x="63.623047" xlink:href="#DejaVuSans-2e"/>
       <use x="95.410156" xlink:href="#DejaVuSans-30"/>
       <use x="159.033203" xlink:href="#DejaVuSans-30"/>
       <use x="222.65625" xlink:href="#DejaVuSans-30"/>
       <use x="286.279297" xlink:href="#DejaVuSans-30"/>
      </g>
     </g>
    </g>
    <g id="ytick_2">
     <g id="line2d_8">
      <g>
       <use style="stroke:#000000;stroke-width:0.8;" x="144" xlink:href="#md4acba1558" y="218.00463"/>
      </g>
     </g>
     <g id="text_8">
      <!-- 0.0005 -->
      <defs>
       <path d="M 10.796875 72.90625 
L 49.515625 72.90625 
L 49.515625 64.59375 
L 19.828125 64.59375 
L 19.828125 46.734375 
Q 21.96875 47.46875 24.109375 47.828125 
Q 26.265625 48.1875 28.421875 48.1875 
Q 40.625 48.1875 47.75 41.5 
Q 54.890625 34.8125 54.890625 23.390625 
Q 54.890625 11.625 47.5625 5.09375 
Q 40.234375 -1.421875 26.90625 -1.421875 
Q 22.3125 -1.421875 17.546875 -0.640625 
Q 12.796875 0.140625 7.71875 1.703125 
L 7.71875 11.625 
Q 12.109375 9.234375 16.796875 8.0625 
Q 21.484375 6.890625 26.703125 6.890625 
Q 35.15625 6.890625 40.078125 11.328125 
Q 45.015625 15.765625 45.015625 23.390625 
Q 45.015625 31 40.078125 35.4375 
Q 35.15625 39.890625 26.703125 39.890625 
Q 22.75 39.890625 18.8125 39.015625 
Q 14.890625 38.140625 10.796875 36.28125 
z
" id="DejaVuSans-35"/>
      </defs>
      <g transform="translate(102.009375 221.803849)scale(0.1 -0.1)">
       <use xlink:href="#DejaVuSans-30"/>
       <use x="63.623047" xlink:href="#DejaVuSans-2e"/>
       <use x="95.410156" xlink:href="#DejaVuSans-30"/>
       <use x="159.033203" xlink:href="#DejaVuSans-30"/>
       <use x="222.65625" xlink:href="#DejaVuSans-30"/>
       <use x="286.279297" xlink:href="#DejaVuSans-35"/>
      </g>
     </g>
    </g>
    <g id="ytick_3">
     <g id="line2d_9">
      <g>
       <use style="stroke:#000000;stroke-width:0.8;" x="144" xlink:href="#md4acba1558" y="184.00926"/>
      </g>
     </g>
     <g id="text_9">
      <!-- 0.0010 -->
      <g transform="translate(102.009375 187.808478)scale(0.1 -0.1)">
       <use xlink:href="#DejaVuSans-30"/>
       <use x="63.623047" xlink:href="#DejaVuSans-2e"/>
       <use x="95.410156" xlink:href="#DejaVuSans-30"/>
       <use x="159.033203" xlink:href="#DejaVuSans-30"/>
       <use x="222.65625" xlink:href="#DejaVuSans-31"/>
       <use x="286.279297" xlink:href="#DejaVuSans-30"/>
      </g>
     </g>
    </g>
    <g id="ytick_4">
     <g id="line2d_10">
      <g>
       <use style="stroke:#000000;stroke-width:0.8;" x="144" xlink:href="#md4acba1558" y="150.01389"/>
      </g>
     </g>
     <g id="text_10">
      <!-- 0.0015 -->
      <g transform="translate(102.009375 153.813108)scale(0.1 -0.1)">
       <use xlink:href="#DejaVuSans-30"/>
       <use x="63.623047" xlink:href="#DejaVuSans-2e"/>
       <use x="95.410156" xlink:href="#DejaVuSans-30"/>
       <use x="159.033203" xlink:href="#DejaVuSans-30"/>
       <use x="222.65625" xlink:href="#DejaVuSans-31"/>
       <use x="286.279297" xlink:href="#DejaVuSans-35"/>
      </g>
     </g>
    </g>
    <g id="ytick_5">
     <g id="line2d_11">
      <g>
       <use style="stroke:#000000;stroke-width:0.8;" x="144" xlink:href="#md4acba1558" y="116.018519"/>
      </g>
     </g>
     <g id="text_11">
      <!-- 0.0020 -->
      <g transform="translate(102.009375 119.817738)scale(0.1 -0.1)">
       <use xlink:href="#DejaVuSans-30"/>
       <use x="63.623047" xlink:href="#DejaVuSans-2e"/>
       <use x="95.410156" xlink:href="#DejaVuSans-30"/>
       <use x="159.033203" xlink:href="#DejaVuSans-30"/>
       <use x="222.65625" xlink:href="#DejaVuSans-32"/>
       <use x="286.279297" xlink:href="#DejaVuSans-30"/>
      </g>
     </g>
    </g>
    <g id="ytick_6">
     <g id="line2d_12">
      <g>
       <use style="stroke:#000000;stroke-width:0.8;" x="144" xlink:href="#md4acba1558" y="82.023149"/>
      </g>
     </g>
     <g id="text_12">
      <!-- 0.0025 -->
      <g transform="translate(102.009375 85.822368)scale(0.1 -0.1)">
       <use xlink:href="#DejaVuSans-30"/>
       <use x="63.623047" xlink:href="#DejaVuSans-2e"/>
       <use x="95.410156" xlink:href="#DejaVuSans-30"/>
       <use x="159.033203" xlink:href="#DejaVuSans-30"/>
       <use x="222.65625" xlink:href="#DejaVuSans-32"/>
       <use x="286.279297" xlink:href="#DejaVuSans-35"/>
      </g>
     </g>
    </g>
    <g id="ytick_7">
     <g id="line2d_13">
      <g>
       <use style="stroke:#000000;stroke-width:0.8;" x="144" xlink:href="#md4acba1558" y="48.027779"/>
      </g>
     </g>
     <g id="text_13">
      <!-- 0.0030 -->
      <defs>
       <path d="M 40.578125 39.3125 
Q 47.65625 37.796875 51.625 33 
Q 55.609375 28.21875 55.609375 21.1875 
Q 55.609375 10.40625 48.1875 4.484375 
Q 40.765625 -1.421875 27.09375 -1.421875 
Q 22.515625 -1.421875 17.65625 -0.515625 
Q 12.796875 0.390625 7.625 2.203125 
L 7.625 11.71875 
Q 11.71875 9.328125 16.59375 8.109375 
Q 21.484375 6.890625 26.8125 6.890625 
Q 36.078125 6.890625 40.9375 10.546875 
Q 45.796875 14.203125 45.796875 21.1875 
Q 45.796875 27.640625 41.28125 31.265625 
Q 36.765625 34.90625 28.71875 34.90625 
L 20.21875 34.90625 
L 20.21875 43.015625 
L 29.109375 43.015625 
Q 36.375 43.015625 40.234375 45.921875 
Q 44.09375 48.828125 44.09375 54.296875 
Q 44.09375 59.90625 40.109375 62.90625 
Q 36.140625 65.921875 28.71875 65.921875 
Q 24.65625 65.921875 20.015625 65.03125 
Q 15.375 64.15625 9.8125 62.3125 
L 9.8125 71.09375 
Q 15.4375 72.65625 20.34375 73.4375 
Q 25.25 74.21875 29.59375 74.21875 
Q 40.828125 74.21875 47.359375 69.109375 
Q 53.90625 64.015625 53.90625 55.328125 
Q 53.90625 49.265625 50.4375 45.09375 
Q 46.96875 40.921875 40.578125 39.3125 
z
" id="DejaVuSans-33"/>
      </defs>
      <g transform="translate(102.009375 51.826998)scale(0.1 -0.1)">
       <use xlink:href="#DejaVuSans-30"/>
       <use x="63.623047" xlink:href="#DejaVuSans-2e"/>
       <use x="95.410156" xlink:href="#DejaVuSans-30"/>
       <use x="159.033203" xlink:href="#DejaVuSans-30"/>
       <use x="222.65625" xlink:href="#DejaVuSans-33"/>
       <use x="286.279297" xlink:href="#DejaVuSans-30"/>
      </g>
     </g>
    </g>
   </g>
   <g id="line2d_14">
    <path clip-path="url(#p54886bacc6)" d="M 155.935829 251.980179 
L 161.574803 251.885609 
L 165.334119 251.666939 
L 169.093436 251.229016 
L 172.852752 250.564607 
L 180.371384 249.121017 
L 186.010358 248.390959 
L 191.649333 247.644092 
L 195.408649 246.86016 
L 199.167965 245.724657 
L 202.927281 244.212513 
L 206.686597 242.358508 
L 210.445914 240.148848 
L 212.325572 238.834528 
L 214.20523 237.294158 
L 216.084888 235.452476 
L 217.964546 233.256088 
L 219.844204 230.700019 
L 223.60352 224.782234 
L 231.122153 212.238486 
L 233.001811 208.870302 
L 234.881469 205.14547 
L 236.761127 200.962154 
L 238.640785 196.325752 
L 246.159417 176.642814 
L 253.67805 158.967274 
L 255.557708 153.635898 
L 257.437366 147.543147 
L 259.317024 140.699361 
L 263.07634 125.506517 
L 266.835656 110.324533 
L 268.715314 103.429933 
L 270.594972 97.164955 
L 272.474631 91.482689 
L 276.233947 81.205851 
L 285.632237 56.485227 
L 287.511895 52.347568 
L 289.391553 48.99462 
L 291.271211 46.601744 
L 293.15087 45.248435 
L 295.030528 44.914286 
L 296.910186 45.507171 
L 298.789844 46.916824 
L 300.669502 49.076207 
L 302.54916 52.006604 
L 304.428818 55.824159 
L 306.308476 60.697439 
L 308.188134 66.765133 
L 310.067792 74.043357 
L 311.94745 82.363327 
L 319.466083 118.234551 
L 323.225399 133.922568 
L 326.984715 149.222328 
L 330.744031 165.733469 
L 336.383006 191.189166 
L 338.262664 198.976909 
L 340.142322 206.158742 
L 342.02198 212.680403 
L 343.901638 218.529299 
L 345.781296 223.712144 
L 347.660954 228.243859 
L 349.540612 232.148071 
L 351.42027 235.462918 
L 353.299928 238.244495 
L 355.179587 240.56342 
L 357.059245 242.495021 
L 358.938903 244.107659 
L 360.818561 245.454722 
L 362.698219 246.573747 
L 364.577877 247.492217 
L 366.457535 248.236108 
L 370.216851 249.328137 
L 375.855826 250.476553 
L 381.4948 251.356188 
L 385.254116 251.720793 
L 390.89309 251.9481 
L 394.652406 251.981572 
L 394.652406 251.981572 
" style="fill:none;stroke:#1f77b4;stroke-linecap:square;stroke-width:1.5;"/>
   </g>
   <g id="patch_3">
    <path d="M 144 252 
L 144 34.56 
" style="fill:none;stroke:#000000;stroke-linecap:square;stroke-linejoin:miter;stroke-width:0.8;"/>
   </g>
   <g id="patch_4">
    <path d="M 406.588235 252 
L 406.588235 34.56 
" style="fill:none;stroke:#000000;stroke-linecap:square;stroke-linejoin:miter;stroke-width:0.8;"/>
   </g>
   <g id="patch_5">
    <path d="M 144 252 
L 406.588235 252 
" style="fill:none;stroke:#000000;stroke-linecap:square;stroke-linejoin:miter;stroke-width:0.8;"/>
   </g>
   <g id="patch_6">
    <path d="M 144 34.56 
L 406.588235 34.56 
" style="fill:none;stroke:#000000;stroke-linecap:square;stroke-linejoin:miter;stroke-width:0.8;"/>
   </g>
   <g id="legend_1">
    <g id="patch_7">
     <path d="M 151 57.51625 
L 247.626563 57.51625 
Q 249.626563 57.51625 249.626563 55.51625 
L 249.626563 41.56 
Q 249.626563 39.56 247.626563 39.56 
L 151 39.56 
Q 149 39.56 149 41.56 
L 149 55.51625 
Q 149 57.51625 151 57.51625 
z
" style="fill:#ffffff;opacity:0.8;stroke:#cccccc;stroke-linejoin:miter;"/>
    </g>
    <g id="line2d_15">
     <path d="M 153 47.658438 
L 173 47.658438 
" style="fill:none;stroke:#1f77b4;stroke-linecap:square;stroke-width:1.5;"/>
    </g>
    <g id="line2d_16"/>
    <g id="text_14">
     <!-- n_estimators -->
     <defs>
      <path d="M 54.890625 33.015625 
L 54.890625 0 
L 45.90625 0 
L 45.90625 32.71875 
Q 45.90625 40.484375 42.875 44.328125 
Q 39.84375 48.1875 33.796875 48.1875 
Q 26.515625 48.1875 22.3125 43.546875 
Q 18.109375 38.921875 18.109375 30.90625 
L 18.109375 0 
L 9.078125 0 
L 9.078125 54.6875 
L 18.109375 54.6875 
L 18.109375 46.1875 
Q 21.34375 51.125 25.703125 53.5625 
Q 30.078125 56 35.796875 56 
Q 45.21875 56 50.046875 50.171875 
Q 54.890625 44.34375 54.890625 33.015625 
z
" id="DejaVuSans-6e"/>
      <path d="M 50.984375 -16.609375 
L 50.984375 -23.578125 
L -0.984375 -23.578125 
L -0.984375 -16.609375 
z
" id="DejaVuSans-5f"/>
      <path d="M 56.203125 29.59375 
L 56.203125 25.203125 
L 14.890625 25.203125 
Q 15.484375 15.921875 20.484375 11.0625 
Q 25.484375 6.203125 34.421875 6.203125 
Q 39.59375 6.203125 44.453125 7.46875 
Q 49.3125 8.734375 54.109375 11.28125 
L 54.109375 2.78125 
Q 49.265625 0.734375 44.1875 -0.34375 
Q 39.109375 -1.421875 33.890625 -1.421875 
Q 20.796875 -1.421875 13.15625 6.1875 
Q 5.515625 13.8125 5.515625 26.8125 
Q 5.515625 40.234375 12.765625 48.109375 
Q 20.015625 56 32.328125 56 
Q 43.359375 56 49.78125 48.890625 
Q 56.203125 41.796875 56.203125 29.59375 
z
M 47.21875 32.234375 
Q 47.125 39.59375 43.09375 43.984375 
Q 39.0625 48.390625 32.421875 48.390625 
Q 24.90625 48.390625 20.390625 44.140625 
Q 15.875 39.890625 15.1875 32.171875 
z
" id="DejaVuSans-65"/>
      <path d="M 44.28125 53.078125 
L 44.28125 44.578125 
Q 40.484375 46.53125 36.375 47.5 
Q 32.28125 48.484375 27.875 48.484375 
Q 21.1875 48.484375 17.84375 46.4375 
Q 14.5 44.390625 14.5 40.28125 
Q 14.5 37.15625 16.890625 35.375 
Q 19.28125 33.59375 26.515625 31.984375 
L 29.59375 31.296875 
Q 39.15625 29.25 43.1875 25.515625 
Q 47.21875 21.78125 47.21875 15.09375 
Q 47.21875 7.46875 41.1875 3.015625 
Q 35.15625 -1.421875 24.609375 -1.421875 
Q 20.21875 -1.421875 15.453125 -0.5625 
Q 10.6875 0.296875 5.421875 2 
L 5.421875 11.28125 
Q 10.40625 8.6875 15.234375 7.390625 
Q 20.0625 6.109375 24.8125 6.109375 
Q 31.15625 6.109375 34.5625 8.28125 
Q 37.984375 10.453125 37.984375 14.40625 
Q 37.984375 18.0625 35.515625 20.015625 
Q 33.0625 21.96875 24.703125 23.78125 
L 21.578125 24.515625 
Q 13.234375 26.265625 9.515625 29.90625 
Q 5.8125 33.546875 5.8125 39.890625 
Q 5.8125 47.609375 11.28125 51.796875 
Q 16.75 56 26.8125 56 
Q 31.78125 56 36.171875 55.265625 
Q 40.578125 54.546875 44.28125 53.078125 
z
" id="DejaVuSans-73"/>
      <path d="M 18.3125 70.21875 
L 18.3125 54.6875 
L 36.8125 54.6875 
L 36.8125 47.703125 
L 18.3125 47.703125 
L 18.3125 18.015625 
Q 18.3125 11.328125 20.140625 9.421875 
Q 21.96875 7.515625 27.59375 7.515625 
L 36.8125 7.515625 
L 36.8125 0 
L 27.59375 0 
Q 17.1875 0 13.234375 3.875 
Q 9.28125 7.765625 9.28125 18.015625 
L 9.28125 47.703125 
L 2.6875 47.703125 
L 2.6875 54.6875 
L 9.28125 54.6875 
L 9.28125 70.21875 
z
" id="DejaVuSans-74"/>
      <path d="M 9.421875 54.6875 
L 18.40625 54.6875 
L 18.40625 0 
L 9.421875 0 
z
M 9.421875 75.984375 
L 18.40625 75.984375 
L 18.40625 64.59375 
L 9.421875 64.59375 
z
" id="DejaVuSans-69"/>
      <path d="M 52 44.1875 
Q 55.375 50.25 60.0625 53.125 
Q 64.75 56 71.09375 56 
Q 79.640625 56 84.28125 50.015625 
Q 88.921875 44.046875 88.921875 33.015625 
L 88.921875 0 
L 79.890625 0 
L 79.890625 32.71875 
Q 79.890625 40.578125 77.09375 44.375 
Q 74.3125 48.1875 68.609375 48.1875 
Q 61.625 48.1875 57.5625 43.546875 
Q 53.515625 38.921875 53.515625 30.90625 
L 53.515625 0 
L 44.484375 0 
L 44.484375 32.71875 
Q 44.484375 40.625 41.703125 44.40625 
Q 38.921875 48.1875 33.109375 48.1875 
Q 26.21875 48.1875 22.15625 43.53125 
Q 18.109375 38.875 18.109375 30.90625 
L 18.109375 0 
L 9.078125 0 
L 9.078125 54.6875 
L 18.109375 54.6875 
L 18.109375 46.1875 
Q 21.1875 51.21875 25.484375 53.609375 
Q 29.78125 56 35.6875 56 
Q 41.65625 56 45.828125 52.96875 
Q 50 49.953125 52 44.1875 
z
" id="DejaVuSans-6d"/>
      <path d="M 34.28125 27.484375 
Q 23.390625 27.484375 19.1875 25 
Q 14.984375 22.515625 14.984375 16.5 
Q 14.984375 11.71875 18.140625 8.90625 
Q 21.296875 6.109375 26.703125 6.109375 
Q 34.1875 6.109375 38.703125 11.40625 
Q 43.21875 16.703125 43.21875 25.484375 
L 43.21875 27.484375 
z
M 52.203125 31.203125 
L 52.203125 0 
L 43.21875 0 
L 43.21875 8.296875 
Q 40.140625 3.328125 35.546875 0.953125 
Q 30.953125 -1.421875 24.3125 -1.421875 
Q 15.921875 -1.421875 10.953125 3.296875 
Q 6 8.015625 6 15.921875 
Q 6 25.140625 12.171875 29.828125 
Q 18.359375 34.515625 30.609375 34.515625 
L 43.21875 34.515625 
L 43.21875 35.40625 
Q 43.21875 41.609375 39.140625 45 
Q 35.0625 48.390625 27.6875 48.390625 
Q 23 48.390625 18.546875 47.265625 
Q 14.109375 46.140625 10.015625 43.890625 
L 10.015625 52.203125 
Q 14.9375 54.109375 19.578125 55.046875 
Q 24.21875 56 28.609375 56 
Q 40.484375 56 46.34375 49.84375 
Q 52.203125 43.703125 52.203125 31.203125 
z
" id="DejaVuSans-61"/>
      <path d="M 30.609375 48.390625 
Q 23.390625 48.390625 19.1875 42.75 
Q 14.984375 37.109375 14.984375 27.296875 
Q 14.984375 17.484375 19.15625 11.84375 
Q 23.34375 6.203125 30.609375 6.203125 
Q 37.796875 6.203125 41.984375 11.859375 
Q 46.1875 17.53125 46.1875 27.296875 
Q 46.1875 37.015625 41.984375 42.703125 
Q 37.796875 48.390625 30.609375 48.390625 
z
M 30.609375 56 
Q 42.328125 56 49.015625 48.375 
Q 55.71875 40.765625 55.71875 27.296875 
Q 55.71875 13.875 49.015625 6.21875 
Q 42.328125 -1.421875 30.609375 -1.421875 
Q 18.84375 -1.421875 12.171875 6.21875 
Q 5.515625 13.875 5.515625 27.296875 
Q 5.515625 40.765625 12.171875 48.375 
Q 18.84375 56 30.609375 56 
z
" id="DejaVuSans-6f"/>
      <path d="M 41.109375 46.296875 
Q 39.59375 47.171875 37.8125 47.578125 
Q 36.03125 48 33.890625 48 
Q 26.265625 48 22.1875 43.046875 
Q 18.109375 38.09375 18.109375 28.8125 
L 18.109375 0 
L 9.078125 0 
L 9.078125 54.6875 
L 18.109375 54.6875 
L 18.109375 46.1875 
Q 20.953125 51.171875 25.484375 53.578125 
Q 30.03125 56 36.53125 56 
Q 37.453125 56 38.578125 55.875 
Q 39.703125 55.765625 41.0625 55.515625 
z
" id="DejaVuSans-72"/>
     </defs>
     <g transform="translate(181 51.158438)scale(0.1 -0.1)">
      <use xlink:href="#DejaVuSans-6e"/>
      <use x="63.378906" xlink:href="#DejaVuSans-5f"/>
      <use x="113.378906" xlink:href="#DejaVuSans-65"/>
      <use x="174.902344" xlink:href="#DejaVuSans-73"/>
      <use x="227.001953" xlink:href="#DejaVuSans-74"/>
      <use x="266.210938" xlink:href="#DejaVuSans-69"/>
      <use x="293.994141" xlink:href="#DejaVuSans-6d"/>
      <use x="391.40625" xlink:href="#DejaVuSans-61"/>
      <use x="452.685547" xlink:href="#DejaVuSans-74"/>
      <use x="491.894531" xlink:href="#DejaVuSans-6f"/>
      <use x="553.076172" xlink:href="#DejaVuSans-72"/>
      <use x="594.189453" xlink:href="#DejaVuSans-73"/>
     </g>
    </g>
   </g>
  </g>
  <g id="axes_2">
   <g id="patch_8">
    <path d="M 459.105882 252 
L 721.694118 252 
L 721.694118 34.56 
L 459.105882 34.56 
z
" style="fill:#ffffff;"/>
   </g>
   <g id="PolyCollection_2">
    <path clip-path="url(#p5e90e44bdb)" d="M 471.041711 251.524001 
L 471.041711 252 
L 472.921369 252 
L 474.801027 252 
L 476.680686 252 
L 478.560344 252 
L 480.440002 252 
L 482.31966 252 
L 484.199318 252 
L 486.078976 252 
L 487.958634 252 
L 489.838292 252 
L 491.71795 252 
L 493.597608 252 
L 495.477266 252 
L 497.356925 252 
L 499.236583 252 
L 501.116241 252 
L 502.995899 252 
L 504.875557 252 
L 506.755215 252 
L 508.634873 252 
L 510.514531 252 
L 512.394189 252 
L 514.273847 252 
L 516.153505 252 
L 518.033164 252 
L 519.912822 252 
L 521.79248 252 
L 523.672138 252 
L 525.551796 252 
L 527.431454 252 
L 529.311112 252 
L 531.19077 252 
L 533.070428 252 
L 534.950086 252 
L 536.829744 252 
L 538.709403 252 
L 540.589061 252 
L 542.468719 252 
L 544.348377 252 
L 546.228035 252 
L 548.107693 252 
L 549.987351 252 
L 551.867009 252 
L 553.746667 252 
L 555.626325 252 
L 557.505983 252 
L 559.385642 252 
L 561.2653 252 
L 563.144958 252 
L 565.024616 252 
L 566.904274 252 
L 568.783932 252 
L 570.66359 252 
L 572.543248 252 
L 574.422906 252 
L 576.302564 252 
L 578.182222 252 
L 580.061881 252 
L 581.941539 252 
L 583.821197 252 
L 585.700855 252 
L 587.580513 252 
L 589.460171 252 
L 591.339829 252 
L 593.219487 252 
L 595.099145 252 
L 596.978803 252 
L 598.858461 252 
L 600.738119 252 
L 602.617778 252 
L 604.497436 252 
L 606.377094 252 
L 608.256752 252 
L 610.13641 252 
L 612.016068 252 
L 613.895726 252 
L 615.775384 252 
L 617.655042 252 
L 619.5347 252 
L 621.414358 252 
L 623.294017 252 
L 625.173675 252 
L 627.053333 252 
L 628.932991 252 
L 630.812649 252 
L 632.692307 252 
L 634.571965 252 
L 636.451623 252 
L 638.331281 252 
L 640.210939 252 
L 642.090597 252 
L 643.970256 252 
L 645.849914 252 
L 647.729572 252 
L 649.60923 252 
L 651.488888 252 
L 653.368546 252 
L 655.248204 252 
L 657.127862 252 
L 659.00752 252 
L 660.887178 252 
L 662.766836 252 
L 664.646495 252 
L 666.526153 252 
L 668.405811 252 
L 670.285469 252 
L 672.165127 252 
L 674.044785 252 
L 675.924443 252 
L 677.804101 252 
L 679.683759 252 
L 681.563417 252 
L 683.443075 252 
L 685.322734 252 
L 687.202392 252 
L 689.08205 252 
L 690.961708 252 
L 692.841366 252 
L 694.721024 252 
L 696.600682 252 
L 698.48034 252 
L 700.359998 252 
L 702.239656 252 
L 704.119314 252 
L 705.998973 252 
L 707.878631 252 
L 709.758289 252 
L 709.758289 251.87899 
L 709.758289 251.87899 
L 707.878631 251.964446 
L 705.998973 251.962528 
L 704.119314 251.91522 
L 702.239656 251.815524 
L 700.359998 251.645643 
L 698.48034 251.396099 
L 696.600682 251.078673 
L 694.721024 250.729568 
L 692.841366 250.393215 
L 690.961708 250.08886 
L 689.08205 249.784866 
L 687.202392 249.406714 
L 685.322734 248.870357 
L 683.443075 248.103238 
L 681.563417 247.032115 
L 679.683759 245.560116 
L 677.804101 243.572262 
L 675.924443 240.979637 
L 674.044785 237.768391 
L 672.165127 234.003365 
L 670.285469 229.76625 
L 668.405811 225.067862 
L 666.526153 219.816741 
L 664.646495 213.908145 
L 662.766836 207.402612 
L 660.887178 200.621678 
L 659.00752 193.947901 
L 657.127862 187.363311 
L 655.248204 180.159956 
L 653.368546 171.296799 
L 651.488888 160.305797 
L 649.60923 147.975973 
L 647.729572 136.058577 
L 645.849914 126.068842 
L 643.970256 118.146776 
L 642.090597 110.984413 
L 640.210939 102.914579 
L 638.331281 93.210007 
L 636.451623 82.483766 
L 634.571965 72.002685 
L 632.692307 62.76013 
L 630.812649 55.189791 
L 628.932991 49.517921 
L 627.053333 46.05221 
L 625.173675 44.914286 
L 623.294017 45.525502 
L 621.414358 46.641597 
L 619.5347 47.216271 
L 617.655042 47.328789 
L 615.775384 48.201881 
L 613.895726 51.335572 
L 612.016068 57.68177 
L 610.13641 67.478496 
L 608.256752 80.452866 
L 606.377094 95.862169 
L 604.497436 112.425682 
L 602.617778 128.59478 
L 600.738119 143.193462 
L 598.858461 155.874021 
L 596.978803 166.961749 
L 595.099145 176.925071 
L 593.219487 186.001126 
L 591.339829 194.178543 
L 589.460171 201.375417 
L 587.580513 207.617576 
L 585.700855 213.102172 
L 583.821197 218.089633 
L 581.941539 222.720185 
L 580.061881 226.973306 
L 578.182222 230.82183 
L 576.302564 234.359808 
L 574.422906 237.720411 
L 572.543248 240.894351 
L 570.66359 243.678284 
L 568.783932 245.808953 
L 566.904274 247.157107 
L 565.024616 247.840427 
L 563.144958 248.183634 
L 561.2653 248.540646 
L 559.385642 249.097263 
L 557.505983 249.806649 
L 555.626325 250.494767 
L 553.746667 251.0195 
L 551.867009 251.349608 
L 549.987351 251.539103 
L 548.107693 251.660685 
L 546.228035 251.759593 
L 544.348377 251.845721 
L 542.468719 251.909914 
L 540.589061 251.941809 
L 538.709403 251.937072 
L 536.829744 251.898326 
L 534.950086 251.838063 
L 533.070428 251.780888 
L 531.19077 251.755129 
L 529.311112 251.774952 
L 527.431454 251.829947 
L 525.551796 251.894286 
L 523.672138 251.945885 
L 521.79248 251.977165 
L 519.912822 251.992048 
L 518.033164 251.99771 
L 516.153505 251.999439 
L 514.273847 251.999779 
L 512.394189 251.999321 
L 510.514531 251.996776 
L 508.634873 251.986816 
L 506.755215 251.954423 
L 504.875557 251.865837 
L 502.995899 251.659674 
L 501.116241 251.242624 
L 499.236583 250.482166 
L 497.356925 249.165508 
L 495.477266 246.89509 
L 493.597608 242.980079 
L 491.71795 236.570356 
L 489.838292 227.352225 
L 487.958634 216.657635 
L 486.078976 207.891741 
L 484.199318 205.048993 
L 482.31966 209.89323 
L 480.440002 220.407859 
L 478.560344 232.246691 
L 476.680686 241.727698 
L 474.801027 247.561079 
L 472.921369 250.406377 
L 471.041711 251.524001 
z
" style="fill:#1f77b4;fill-opacity:0.25;"/>
   </g>
   <g id="matplotlib.axis_3">
    <g id="xtick_7">
     <g id="line2d_17">
      <g>
       <use style="stroke:#000000;stroke-width:0.8;" x="477.922373" xlink:href="#mc2423cd297" y="252"/>
      </g>
     </g>
     <g id="text_15">
      <!-- 0 -->
      <g transform="translate(474.741123 266.598437)scale(0.1 -0.1)">
       <use xlink:href="#DejaVuSans-30"/>
      </g>
     </g>
    </g>
    <g id="xtick_8">
     <g id="line2d_18">
      <g>
       <use style="stroke:#000000;stroke-width:0.8;" x="524.934965" xlink:href="#mc2423cd297" y="252"/>
      </g>
     </g>
     <g id="text_16">
      <!-- 200 -->
      <g transform="translate(515.391215 266.598437)scale(0.1 -0.1)">
       <use xlink:href="#DejaVuSans-32"/>
       <use x="63.623047" xlink:href="#DejaVuSans-30"/>
       <use x="127.246094" xlink:href="#DejaVuSans-30"/>
      </g>
     </g>
    </g>
    <g id="xtick_9">
     <g id="line2d_19">
      <g>
       <use style="stroke:#000000;stroke-width:0.8;" x="571.947558" xlink:href="#mc2423cd297" y="252"/>
      </g>
     </g>
     <g id="text_17">
      <!-- 400 -->
      <g transform="translate(562.403808 266.598437)scale(0.1 -0.1)">
       <use xlink:href="#DejaVuSans-34"/>
       <use x="63.623047" xlink:href="#DejaVuSans-30"/>
       <use x="127.246094" xlink:href="#DejaVuSans-30"/>
      </g>
     </g>
    </g>
    <g id="xtick_10">
     <g id="line2d_20">
      <g>
       <use style="stroke:#000000;stroke-width:0.8;" x="618.96015" xlink:href="#mc2423cd297" y="252"/>
      </g>
     </g>
     <g id="text_18">
      <!-- 600 -->
      <g transform="translate(609.4164 266.598437)scale(0.1 -0.1)">
       <use xlink:href="#DejaVuSans-36"/>
       <use x="63.623047" xlink:href="#DejaVuSans-30"/>
       <use x="127.246094" xlink:href="#DejaVuSans-30"/>
      </g>
     </g>
    </g>
    <g id="xtick_11">
     <g id="line2d_21">
      <g>
       <use style="stroke:#000000;stroke-width:0.8;" x="665.972742" xlink:href="#mc2423cd297" y="252"/>
      </g>
     </g>
     <g id="text_19">
      <!-- 800 -->
      <g transform="translate(656.428992 266.598437)scale(0.1 -0.1)">
       <use xlink:href="#DejaVuSans-38"/>
       <use x="63.623047" xlink:href="#DejaVuSans-30"/>
       <use x="127.246094" xlink:href="#DejaVuSans-30"/>
      </g>
     </g>
    </g>
    <g id="xtick_12">
     <g id="line2d_22">
      <g>
       <use style="stroke:#000000;stroke-width:0.8;" x="712.985334" xlink:href="#mc2423cd297" y="252"/>
      </g>
     </g>
     <g id="text_20">
      <!-- 1000 -->
      <g transform="translate(700.260334 266.598437)scale(0.1 -0.1)">
       <use xlink:href="#DejaVuSans-31"/>
       <use x="63.623047" xlink:href="#DejaVuSans-30"/>
       <use x="127.246094" xlink:href="#DejaVuSans-30"/>
       <use x="190.869141" xlink:href="#DejaVuSans-30"/>
      </g>
     </g>
    </g>
   </g>
   <g id="matplotlib.axis_4">
    <g id="ytick_8">
     <g id="line2d_23">
      <g>
       <use style="stroke:#000000;stroke-width:0.8;" x="459.105882" xlink:href="#md4acba1558" y="252"/>
      </g>
     </g>
     <g id="text_21">
      <!-- 0.0000 -->
      <g transform="translate(417.115257 255.799219)scale(0.1 -0.1)">
       <use xlink:href="#DejaVuSans-30"/>
       <use x="63.623047" xlink:href="#DejaVuSans-2e"/>
       <use x="95.410156" xlink:href="#DejaVuSans-30"/>
       <use x="159.033203" xlink:href="#DejaVuSans-30"/>
       <use x="222.65625" xlink:href="#DejaVuSans-30"/>
       <use x="286.279297" xlink:href="#DejaVuSans-30"/>
      </g>
     </g>
    </g>
    <g id="ytick_9">
     <g id="line2d_24">
      <g>
       <use style="stroke:#000000;stroke-width:0.8;" x="459.105882" xlink:href="#md4acba1558" y="227.000092"/>
      </g>
     </g>
     <g id="text_22">
      <!-- 0.0005 -->
      <g transform="translate(417.115257 230.799311)scale(0.1 -0.1)">
       <use xlink:href="#DejaVuSans-30"/>
       <use x="63.623047" xlink:href="#DejaVuSans-2e"/>
       <use x="95.410156" xlink:href="#DejaVuSans-30"/>
       <use x="159.033203" xlink:href="#DejaVuSans-30"/>
       <use x="222.65625" xlink:href="#DejaVuSans-30"/>
       <use x="286.279297" xlink:href="#DejaVuSans-35"/>
      </g>
     </g>
    </g>
    <g id="ytick_10">
     <g id="line2d_25">
      <g>
       <use style="stroke:#000000;stroke-width:0.8;" x="459.105882" xlink:href="#md4acba1558" y="202.000185"/>
      </g>
     </g>
     <g id="text_23">
      <!-- 0.0010 -->
      <g transform="translate(417.115257 205.799403)scale(0.1 -0.1)">
       <use xlink:href="#DejaVuSans-30"/>
       <use x="63.623047" xlink:href="#DejaVuSans-2e"/>
       <use x="95.410156" xlink:href="#DejaVuSans-30"/>
       <use x="159.033203" xlink:href="#DejaVuSans-30"/>
       <use x="222.65625" xlink:href="#DejaVuSans-31"/>
       <use x="286.279297" xlink:href="#DejaVuSans-30"/>
      </g>
     </g>
    </g>
    <g id="ytick_11">
     <g id="line2d_26">
      <g>
       <use style="stroke:#000000;stroke-width:0.8;" x="459.105882" xlink:href="#md4acba1558" y="177.000277"/>
      </g>
     </g>
     <g id="text_24">
      <!-- 0.0015 -->
      <g transform="translate(417.115257 180.799496)scale(0.1 -0.1)">
       <use xlink:href="#DejaVuSans-30"/>
       <use x="63.623047" xlink:href="#DejaVuSans-2e"/>
       <use x="95.410156" xlink:href="#DejaVuSans-30"/>
       <use x="159.033203" xlink:href="#DejaVuSans-30"/>
       <use x="222.65625" xlink:href="#DejaVuSans-31"/>
       <use x="286.279297" xlink:href="#DejaVuSans-35"/>
      </g>
     </g>
    </g>
    <g id="ytick_12">
     <g id="line2d_27">
      <g>
       <use style="stroke:#000000;stroke-width:0.8;" x="459.105882" xlink:href="#md4acba1558" y="152.000369"/>
      </g>
     </g>
     <g id="text_25">
      <!-- 0.0020 -->
      <g transform="translate(417.115257 155.799588)scale(0.1 -0.1)">
       <use xlink:href="#DejaVuSans-30"/>
       <use x="63.623047" xlink:href="#DejaVuSans-2e"/>
       <use x="95.410156" xlink:href="#DejaVuSans-30"/>
       <use x="159.033203" xlink:href="#DejaVuSans-30"/>
       <use x="222.65625" xlink:href="#DejaVuSans-32"/>
       <use x="286.279297" xlink:href="#DejaVuSans-30"/>
      </g>
     </g>
    </g>
    <g id="ytick_13">
     <g id="line2d_28">
      <g>
       <use style="stroke:#000000;stroke-width:0.8;" x="459.105882" xlink:href="#md4acba1558" y="127.000462"/>
      </g>
     </g>
     <g id="text_26">
      <!-- 0.0025 -->
      <g transform="translate(417.115257 130.79968)scale(0.1 -0.1)">
       <use xlink:href="#DejaVuSans-30"/>
       <use x="63.623047" xlink:href="#DejaVuSans-2e"/>
       <use x="95.410156" xlink:href="#DejaVuSans-30"/>
       <use x="159.033203" xlink:href="#DejaVuSans-30"/>
       <use x="222.65625" xlink:href="#DejaVuSans-32"/>
       <use x="286.279297" xlink:href="#DejaVuSans-35"/>
      </g>
     </g>
    </g>
    <g id="ytick_14">
     <g id="line2d_29">
      <g>
       <use style="stroke:#000000;stroke-width:0.8;" x="459.105882" xlink:href="#md4acba1558" y="102.000554"/>
      </g>
     </g>
     <g id="text_27">
      <!-- 0.0030 -->
      <g transform="translate(417.115257 105.799773)scale(0.1 -0.1)">
       <use xlink:href="#DejaVuSans-30"/>
       <use x="63.623047" xlink:href="#DejaVuSans-2e"/>
       <use x="95.410156" xlink:href="#DejaVuSans-30"/>
       <use x="159.033203" xlink:href="#DejaVuSans-30"/>
       <use x="222.65625" xlink:href="#DejaVuSans-33"/>
       <use x="286.279297" xlink:href="#DejaVuSans-30"/>
      </g>
     </g>
    </g>
    <g id="ytick_15">
     <g id="line2d_30">
      <g>
       <use style="stroke:#000000;stroke-width:0.8;" x="459.105882" xlink:href="#md4acba1558" y="77.000646"/>
      </g>
     </g>
     <g id="text_28">
      <!-- 0.0035 -->
      <g transform="translate(417.115257 80.799865)scale(0.1 -0.1)">
       <use xlink:href="#DejaVuSans-30"/>
       <use x="63.623047" xlink:href="#DejaVuSans-2e"/>
       <use x="95.410156" xlink:href="#DejaVuSans-30"/>
       <use x="159.033203" xlink:href="#DejaVuSans-30"/>
       <use x="222.65625" xlink:href="#DejaVuSans-33"/>
       <use x="286.279297" xlink:href="#DejaVuSans-35"/>
      </g>
     </g>
    </g>
    <g id="ytick_16">
     <g id="line2d_31">
      <g>
       <use style="stroke:#000000;stroke-width:0.8;" x="459.105882" xlink:href="#md4acba1558" y="52.000739"/>
      </g>
     </g>
     <g id="text_29">
      <!-- 0.0040 -->
      <g transform="translate(417.115257 55.799957)scale(0.1 -0.1)">
       <use xlink:href="#DejaVuSans-30"/>
       <use x="63.623047" xlink:href="#DejaVuSans-2e"/>
       <use x="95.410156" xlink:href="#DejaVuSans-30"/>
       <use x="159.033203" xlink:href="#DejaVuSans-30"/>
       <use x="222.65625" xlink:href="#DejaVuSans-34"/>
       <use x="286.279297" xlink:href="#DejaVuSans-30"/>
      </g>
     </g>
    </g>
   </g>
   <g id="line2d_32">
    <path clip-path="url(#p5e90e44bdb)" d="M 471.041711 251.524001 
L 472.921369 250.406377 
L 474.801027 247.561079 
L 476.680686 241.727698 
L 478.560344 232.246691 
L 480.440002 220.407859 
L 482.31966 209.89323 
L 484.199318 205.048993 
L 486.078976 207.891741 
L 487.958634 216.657635 
L 489.838292 227.352225 
L 491.71795 236.570356 
L 493.597608 242.980079 
L 495.477266 246.89509 
L 497.356925 249.165508 
L 499.236583 250.482166 
L 501.116241 251.242624 
L 502.995899 251.659674 
L 504.875557 251.865837 
L 508.634873 251.986816 
L 521.79248 251.977165 
L 534.950086 251.838063 
L 540.589061 251.941809 
L 546.228035 251.759593 
L 549.987351 251.539103 
L 551.867009 251.349608 
L 553.746667 251.0195 
L 555.626325 250.494767 
L 561.2653 248.540646 
L 565.024616 247.840427 
L 566.904274 247.157107 
L 568.783932 245.808953 
L 570.66359 243.678284 
L 572.543248 240.894351 
L 576.302564 234.359808 
L 578.182222 230.82183 
L 580.061881 226.973306 
L 581.941539 222.720185 
L 583.821197 218.089633 
L 585.700855 213.102172 
L 587.580513 207.617576 
L 589.460171 201.375417 
L 591.339829 194.178543 
L 593.219487 186.001126 
L 595.099145 176.925071 
L 596.978803 166.961749 
L 598.858461 155.874021 
L 600.738119 143.193462 
L 602.617778 128.59478 
L 608.256752 80.452866 
L 610.13641 67.478496 
L 612.016068 57.68177 
L 613.895726 51.335572 
L 615.775384 48.201881 
L 617.655042 47.328789 
L 619.5347 47.216271 
L 621.414358 46.641597 
L 623.294017 45.525502 
L 625.173675 44.914286 
L 627.053333 46.05221 
L 628.932991 49.517921 
L 630.812649 55.189791 
L 632.692307 62.76013 
L 634.571965 72.002685 
L 640.210939 102.914579 
L 642.090597 110.984413 
L 643.970256 118.146776 
L 645.849914 126.068842 
L 647.729572 136.058577 
L 653.368546 171.296799 
L 655.248204 180.159956 
L 657.127862 187.363311 
L 664.646495 213.908145 
L 666.526153 219.816741 
L 668.405811 225.067862 
L 670.285469 229.76625 
L 672.165127 234.003365 
L 674.044785 237.768391 
L 675.924443 240.979637 
L 677.804101 243.572262 
L 679.683759 245.560116 
L 681.563417 247.032115 
L 683.443075 248.103238 
L 685.322734 248.870357 
L 687.202392 249.406714 
L 690.961708 250.08886 
L 702.239656 251.815524 
L 705.998973 251.962528 
L 709.758289 251.87899 
L 709.758289 251.87899 
" style="fill:none;stroke:#1f77b4;stroke-linecap:square;stroke-width:1.5;"/>
   </g>
   <g id="patch_9">
    <path d="M 459.105882 252 
L 459.105882 34.56 
" style="fill:none;stroke:#000000;stroke-linecap:square;stroke-linejoin:miter;stroke-width:0.8;"/>
   </g>
   <g id="patch_10">
    <path d="M 721.694118 252 
L 721.694118 34.56 
" style="fill:none;stroke:#000000;stroke-linecap:square;stroke-linejoin:miter;stroke-width:0.8;"/>
   </g>
   <g id="patch_11">
    <path d="M 459.105882 252 
L 721.694118 252 
" style="fill:none;stroke:#000000;stroke-linecap:square;stroke-linejoin:miter;stroke-width:0.8;"/>
   </g>
   <g id="patch_12">
    <path d="M 459.105882 34.56 
L 721.694118 34.56 
" style="fill:none;stroke:#000000;stroke-linecap:square;stroke-linejoin:miter;stroke-width:0.8;"/>
   </g>
   <g id="legend_2">
    <g id="patch_13">
     <path d="M 466.105882 57.51625 
L 562.732445 57.51625 
Q 564.732445 57.51625 564.732445 55.51625 
L 564.732445 41.56 
Q 564.732445 39.56 562.732445 39.56 
L 466.105882 39.56 
Q 464.105882 39.56 464.105882 41.56 
L 464.105882 55.51625 
Q 464.105882 57.51625 466.105882 57.51625 
z
" style="fill:#ffffff;opacity:0.8;stroke:#cccccc;stroke-linejoin:miter;"/>
    </g>
    <g id="line2d_33">
     <path d="M 468.105882 47.658438 
L 488.105882 47.658438 
" style="fill:none;stroke:#1f77b4;stroke-linecap:square;stroke-width:1.5;"/>
    </g>
    <g id="line2d_34"/>
    <g id="text_30">
     <!-- n_estimators -->
     <g transform="translate(496.105882 51.158438)scale(0.1 -0.1)">
      <use xlink:href="#DejaVuSans-6e"/>
      <use x="63.378906" xlink:href="#DejaVuSans-5f"/>
      <use x="113.378906" xlink:href="#DejaVuSans-65"/>
      <use x="174.902344" xlink:href="#DejaVuSans-73"/>
      <use x="227.001953" xlink:href="#DejaVuSans-74"/>
      <use x="266.210938" xlink:href="#DejaVuSans-69"/>
      <use x="293.994141" xlink:href="#DejaVuSans-6d"/>
      <use x="391.40625" xlink:href="#DejaVuSans-61"/>
      <use x="452.685547" xlink:href="#DejaVuSans-74"/>
      <use x="491.894531" xlink:href="#DejaVuSans-6f"/>
      <use x="553.076172" xlink:href="#DejaVuSans-72"/>
      <use x="594.189453" xlink:href="#DejaVuSans-73"/>
     </g>
    </g>
   </g>
  </g>
  <g id="axes_3">
   <g id="patch_14">
    <path d="M 774.211765 252 
L 1036.8 252 
L 1036.8 34.56 
L 774.211765 34.56 
z
" style="fill:#ffffff;"/>
   </g>
   <g id="PolyCollection_3">
    <path clip-path="url(#pcb283d1c4c)" d="M 786.147594 251.540273 
L 786.147594 252 
L 788.027252 252 
L 789.90691 252 
L 791.786568 252 
L 793.666226 252 
L 795.545884 252 
L 797.425542 252 
L 799.3052 252 
L 801.184858 252 
L 803.064516 252 
L 804.944174 252 
L 806.823833 252 
L 808.703491 252 
L 810.583149 252 
L 812.462807 252 
L 814.342465 252 
L 816.222123 252 
L 818.101781 252 
L 819.981439 252 
L 821.861097 252 
L 823.740755 252 
L 825.620413 252 
L 827.500072 252 
L 829.37973 252 
L 831.259388 252 
L 833.139046 252 
L 835.018704 252 
L 836.898362 252 
L 838.77802 252 
L 840.657678 252 
L 842.537336 252 
L 844.416994 252 
L 846.296652 252 
L 848.176311 252 
L 850.055969 252 
L 851.935627 252 
L 853.815285 252 
L 855.694943 252 
L 857.574601 252 
L 859.454259 252 
L 861.333917 252 
L 863.213575 252 
L 865.093233 252 
L 866.972891 252 
L 868.85255 252 
L 870.732208 252 
L 872.611866 252 
L 874.491524 252 
L 876.371182 252 
L 878.25084 252 
L 880.130498 252 
L 882.010156 252 
L 883.889814 252 
L 885.769472 252 
L 887.64913 252 
L 889.528789 252 
L 891.408447 252 
L 893.288105 252 
L 895.167763 252 
L 897.047421 252 
L 898.927079 252 
L 900.806737 252 
L 902.686395 252 
L 904.566053 252 
L 906.445711 252 
L 908.325369 252 
L 910.205028 252 
L 912.084686 252 
L 913.964344 252 
L 915.844002 252 
L 917.72366 252 
L 919.603318 252 
L 921.482976 252 
L 923.362634 252 
L 925.242292 252 
L 927.12195 252 
L 929.001608 252 
L 930.881267 252 
L 932.760925 252 
L 934.640583 252 
L 936.520241 252 
L 938.399899 252 
L 940.279557 252 
L 942.159215 252 
L 944.038873 252 
L 945.918531 252 
L 947.798189 252 
L 949.677847 252 
L 951.557506 252 
L 953.437164 252 
L 955.316822 252 
L 957.19648 252 
L 959.076138 252 
L 960.955796 252 
L 962.835454 252 
L 964.715112 252 
L 966.59477 252 
L 968.474428 252 
L 970.354086 252 
L 972.233745 252 
L 974.113403 252 
L 975.993061 252 
L 977.872719 252 
L 979.752377 252 
L 981.632035 252 
L 983.511693 252 
L 985.391351 252 
L 987.271009 252 
L 989.150667 252 
L 991.030325 252 
L 992.909984 252 
L 994.789642 252 
L 996.6693 252 
L 998.548958 252 
L 1000.428616 252 
L 1002.308274 252 
L 1004.187932 252 
L 1006.06759 252 
L 1007.947248 252 
L 1009.826906 252 
L 1011.706564 252 
L 1013.586223 252 
L 1015.465881 252 
L 1017.345539 252 
L 1019.225197 252 
L 1021.104855 252 
L 1022.984513 252 
L 1024.864171 252 
L 1024.864171 251.903071 
L 1024.864171 251.903071 
L 1022.984513 251.97586 
L 1021.104855 251.970481 
L 1019.225197 251.928829 
L 1017.345539 251.849022 
L 1015.465881 251.728736 
L 1013.586223 251.573032 
L 1011.706564 251.380513 
L 1009.826906 251.12341 
L 1007.947248 250.748259 
L 1006.06759 250.210105 
L 1004.187932 249.510461 
L 1002.308274 248.687881 
L 1000.428616 247.763812 
L 998.548958 246.713473 
L 996.6693 245.493481 
L 994.789642 244.058852 
L 992.909984 242.303866 
L 991.030325 239.980334 
L 989.150667 236.731892 
L 987.271009 232.298171 
L 985.391351 226.722787 
L 983.511693 220.323765 
L 981.632035 213.462168 
L 979.752377 206.419948 
L 977.872719 199.461566 
L 975.993061 192.734513 
L 974.113403 185.887349 
L 972.233745 177.926826 
L 970.354086 167.740428 
L 968.474428 154.885615 
L 966.59477 139.987595 
L 964.715112 124.573545 
L 962.835454 110.431084 
L 960.955796 98.699408 
L 959.076138 89.335084 
L 957.19648 81.457313 
L 955.316822 74.082378 
L 953.437164 66.49566 
L 951.557506 58.448653 
L 949.677847 50.698907 
L 947.798189 45.360179 
L 945.918531 44.914286 
L 944.038873 50.125303 
L 942.159215 58.964166 
L 940.279557 68.077995 
L 938.399899 75.524975 
L 936.520241 81.972532 
L 934.640583 89.321748 
L 932.760925 98.548354 
L 930.881267 109.003544 
L 929.001608 119.372856 
L 927.12195 128.853119 
L 925.242292 137.476333 
L 923.362634 145.755787 
L 921.482976 154.342197 
L 919.603318 163.850456 
L 917.72366 174.539599 
L 915.844002 185.928357 
L 913.964344 196.894073 
L 912.084686 206.360214 
L 910.205028 213.927729 
L 908.325369 219.885635 
L 906.445711 224.792623 
L 904.566053 229.131323 
L 902.686395 233.157822 
L 900.806737 236.82973 
L 898.927079 239.861946 
L 897.047421 241.979283 
L 895.167763 243.186642 
L 893.288105 243.808564 
L 891.408447 244.289349 
L 889.528789 244.953601 
L 887.64913 245.896172 
L 885.769472 247.023114 
L 883.889814 248.161327 
L 882.010156 249.150931 
L 880.130498 249.897034 
L 878.25084 250.389667 
L 876.371182 250.686399 
L 874.491524 250.864894 
L 872.611866 250.985563 
L 870.732208 251.089652 
L 868.85255 251.211006 
L 866.972891 251.369698 
L 865.093233 251.552754 
L 863.213575 251.715529 
L 861.333917 251.814313 
L 859.454259 251.840457 
L 857.574601 251.82542 
L 855.694943 251.815466 
L 853.815285 251.837819 
L 851.935627 251.886384 
L 850.055969 251.937127 
L 848.176311 251.97254 
L 846.296652 251.990523 
L 844.416994 251.997411 
L 842.537336 251.999439 
L 840.657678 251.999903 
L 838.77802 251.999987 
L 836.898362 251.999999 
L 835.018704 252 
L 833.139046 252 
L 831.259388 251.999999 
L 829.37973 251.999993 
L 827.500072 251.999941 
L 825.620413 251.999633 
L 823.740755 251.998164 
L 821.861097 251.9926 
L 819.981439 251.97576 
L 818.101781 251.934242 
L 816.222123 251.847327 
L 814.342465 251.679492 
L 812.462807 251.344095 
L 810.583149 250.606371 
L 808.703491 248.915206 
L 806.823833 245.258421 
L 804.944174 238.377142 
L 803.064516 227.816613 
L 801.184858 215.589028 
L 799.3052 206.598029 
L 797.425542 205.86537 
L 795.545884 214.211896 
L 793.666226 227.230484 
L 791.786568 239.067418 
L 789.90691 246.637095 
L 788.027252 250.23663 
L 786.147594 251.540273 
z
" style="fill:#1f77b4;fill-opacity:0.25;"/>
   </g>
   <g id="matplotlib.axis_5">
    <g id="xtick_13">
     <g id="line2d_35">
      <g>
       <use style="stroke:#000000;stroke-width:0.8;" x="791.700267" xlink:href="#mc2423cd297" y="252"/>
      </g>
     </g>
     <g id="text_31">
      <!-- 0 -->
      <g transform="translate(788.519017 266.598437)scale(0.1 -0.1)">
       <use xlink:href="#DejaVuSans-30"/>
      </g>
     </g>
    </g>
    <g id="xtick_14">
     <g id="line2d_36">
      <g>
       <use style="stroke:#000000;stroke-width:0.8;" x="840.128189" xlink:href="#mc2423cd297" y="252"/>
      </g>
     </g>
     <g id="text_32">
      <!-- 200 -->
      <g transform="translate(830.584439 266.598437)scale(0.1 -0.1)">
       <use xlink:href="#DejaVuSans-32"/>
       <use x="63.623047" xlink:href="#DejaVuSans-30"/>
       <use x="127.246094" xlink:href="#DejaVuSans-30"/>
      </g>
     </g>
    </g>
    <g id="xtick_15">
     <g id="line2d_37">
      <g>
       <use style="stroke:#000000;stroke-width:0.8;" x="888.55611" xlink:href="#mc2423cd297" y="252"/>
      </g>
     </g>
     <g id="text_33">
      <!-- 400 -->
      <g transform="translate(879.01236 266.598437)scale(0.1 -0.1)">
       <use xlink:href="#DejaVuSans-34"/>
       <use x="63.623047" xlink:href="#DejaVuSans-30"/>
       <use x="127.246094" xlink:href="#DejaVuSans-30"/>
      </g>
     </g>
    </g>
    <g id="xtick_16">
     <g id="line2d_38">
      <g>
       <use style="stroke:#000000;stroke-width:0.8;" x="936.984031" xlink:href="#mc2423cd297" y="252"/>
      </g>
     </g>
     <g id="text_34">
      <!-- 600 -->
      <g transform="translate(927.440281 266.598437)scale(0.1 -0.1)">
       <use xlink:href="#DejaVuSans-36"/>
       <use x="63.623047" xlink:href="#DejaVuSans-30"/>
       <use x="127.246094" xlink:href="#DejaVuSans-30"/>
      </g>
     </g>
    </g>
    <g id="xtick_17">
     <g id="line2d_39">
      <g>
       <use style="stroke:#000000;stroke-width:0.8;" x="985.411952" xlink:href="#mc2423cd297" y="252"/>
      </g>
     </g>
     <g id="text_35">
      <!-- 800 -->
      <g transform="translate(975.868202 266.598437)scale(0.1 -0.1)">
       <use xlink:href="#DejaVuSans-38"/>
       <use x="63.623047" xlink:href="#DejaVuSans-30"/>
       <use x="127.246094" xlink:href="#DejaVuSans-30"/>
      </g>
     </g>
    </g>
    <g id="xtick_18">
     <g id="line2d_40">
      <g>
       <use style="stroke:#000000;stroke-width:0.8;" x="1033.839874" xlink:href="#mc2423cd297" y="252"/>
      </g>
     </g>
     <g id="text_36">
      <!-- 1000 -->
      <g transform="translate(1021.114874 266.598437)scale(0.1 -0.1)">
       <use xlink:href="#DejaVuSans-31"/>
       <use x="63.623047" xlink:href="#DejaVuSans-30"/>
       <use x="127.246094" xlink:href="#DejaVuSans-30"/>
       <use x="190.869141" xlink:href="#DejaVuSans-30"/>
      </g>
     </g>
    </g>
   </g>
   <g id="matplotlib.axis_6">
    <g id="ytick_17">
     <g id="line2d_41">
      <g>
       <use style="stroke:#000000;stroke-width:0.8;" x="774.211765" xlink:href="#md4acba1558" y="252"/>
      </g>
     </g>
     <g id="text_37">
      <!-- 0.000 -->
      <g transform="translate(738.58364 255.799219)scale(0.1 -0.1)">
       <use xlink:href="#DejaVuSans-30"/>
       <use x="63.623047" xlink:href="#DejaVuSans-2e"/>
       <use x="95.410156" xlink:href="#DejaVuSans-30"/>
       <use x="159.033203" xlink:href="#DejaVuSans-30"/>
       <use x="222.65625" xlink:href="#DejaVuSans-30"/>
      </g>
     </g>
    </g>
    <g id="ytick_18">
     <g id="line2d_42">
      <g>
       <use style="stroke:#000000;stroke-width:0.8;" x="774.211765" xlink:href="#md4acba1558" y="209.338742"/>
      </g>
     </g>
     <g id="text_38">
      <!-- 0.001 -->
      <g transform="translate(738.58364 213.137961)scale(0.1 -0.1)">
       <use xlink:href="#DejaVuSans-30"/>
       <use x="63.623047" xlink:href="#DejaVuSans-2e"/>
       <use x="95.410156" xlink:href="#DejaVuSans-30"/>
       <use x="159.033203" xlink:href="#DejaVuSans-30"/>
       <use x="222.65625" xlink:href="#DejaVuSans-31"/>
      </g>
     </g>
    </g>
    <g id="ytick_19">
     <g id="line2d_43">
      <g>
       <use style="stroke:#000000;stroke-width:0.8;" x="774.211765" xlink:href="#md4acba1558" y="166.677484"/>
      </g>
     </g>
     <g id="text_39">
      <!-- 0.002 -->
      <g transform="translate(738.58364 170.476703)scale(0.1 -0.1)">
       <use xlink:href="#DejaVuSans-30"/>
       <use x="63.623047" xlink:href="#DejaVuSans-2e"/>
       <use x="95.410156" xlink:href="#DejaVuSans-30"/>
       <use x="159.033203" xlink:href="#DejaVuSans-30"/>
       <use x="222.65625" xlink:href="#DejaVuSans-32"/>
      </g>
     </g>
    </g>
    <g id="ytick_20">
     <g id="line2d_44">
      <g>
       <use style="stroke:#000000;stroke-width:0.8;" x="774.211765" xlink:href="#md4acba1558" y="124.016226"/>
      </g>
     </g>
     <g id="text_40">
      <!-- 0.003 -->
      <g transform="translate(738.58364 127.815445)scale(0.1 -0.1)">
       <use xlink:href="#DejaVuSans-30"/>
       <use x="63.623047" xlink:href="#DejaVuSans-2e"/>
       <use x="95.410156" xlink:href="#DejaVuSans-30"/>
       <use x="159.033203" xlink:href="#DejaVuSans-30"/>
       <use x="222.65625" xlink:href="#DejaVuSans-33"/>
      </g>
     </g>
    </g>
    <g id="ytick_21">
     <g id="line2d_45">
      <g>
       <use style="stroke:#000000;stroke-width:0.8;" x="774.211765" xlink:href="#md4acba1558" y="81.354968"/>
      </g>
     </g>
     <g id="text_41">
      <!-- 0.004 -->
      <g transform="translate(738.58364 85.154187)scale(0.1 -0.1)">
       <use xlink:href="#DejaVuSans-30"/>
       <use x="63.623047" xlink:href="#DejaVuSans-2e"/>
       <use x="95.410156" xlink:href="#DejaVuSans-30"/>
       <use x="159.033203" xlink:href="#DejaVuSans-30"/>
       <use x="222.65625" xlink:href="#DejaVuSans-34"/>
      </g>
     </g>
    </g>
    <g id="ytick_22">
     <g id="line2d_46">
      <g>
       <use style="stroke:#000000;stroke-width:0.8;" x="774.211765" xlink:href="#md4acba1558" y="38.69371"/>
      </g>
     </g>
     <g id="text_42">
      <!-- 0.005 -->
      <g transform="translate(738.58364 42.492929)scale(0.1 -0.1)">
       <use xlink:href="#DejaVuSans-30"/>
       <use x="63.623047" xlink:href="#DejaVuSans-2e"/>
       <use x="95.410156" xlink:href="#DejaVuSans-30"/>
       <use x="159.033203" xlink:href="#DejaVuSans-30"/>
       <use x="222.65625" xlink:href="#DejaVuSans-35"/>
      </g>
     </g>
    </g>
   </g>
   <g id="line2d_47">
    <path clip-path="url(#pcb283d1c4c)" d="M 786.147594 251.540273 
L 788.027252 250.23663 
L 789.90691 246.637095 
L 791.786568 239.067418 
L 793.666226 227.230484 
L 795.545884 214.211896 
L 797.425542 205.86537 
L 799.3052 206.598029 
L 801.184858 215.589028 
L 803.064516 227.816613 
L 804.944174 238.377142 
L 806.823833 245.258421 
L 808.703491 248.915206 
L 810.583149 250.606371 
L 812.462807 251.344095 
L 814.342465 251.679492 
L 818.101781 251.934242 
L 825.620413 251.999633 
L 850.055969 251.937127 
L 857.574601 251.82542 
L 861.333917 251.814313 
L 865.093233 251.552754 
L 870.732208 251.089652 
L 876.371182 250.686399 
L 878.25084 250.389667 
L 880.130498 249.897034 
L 882.010156 249.150931 
L 883.889814 248.161327 
L 887.64913 245.896172 
L 889.528789 244.953601 
L 891.408447 244.289349 
L 893.288105 243.808564 
L 895.167763 243.186642 
L 897.047421 241.979283 
L 898.927079 239.861946 
L 900.806737 236.82973 
L 902.686395 233.157822 
L 904.566053 229.131323 
L 906.445711 224.792623 
L 908.325369 219.885635 
L 910.205028 213.927729 
L 912.084686 206.360214 
L 913.964344 196.894073 
L 919.603318 163.850456 
L 921.482976 154.342197 
L 927.12195 128.853119 
L 929.001608 119.372856 
L 932.760925 98.548354 
L 934.640583 89.321748 
L 936.520241 81.972532 
L 938.399899 75.524975 
L 940.279557 68.077995 
L 944.038873 50.125303 
L 945.918531 44.914286 
L 947.798189 45.360179 
L 949.677847 50.698907 
L 959.076138 89.335084 
L 960.955796 98.699408 
L 962.835454 110.431084 
L 964.715112 124.573545 
L 968.474428 154.885615 
L 970.354086 167.740428 
L 972.233745 177.926826 
L 974.113403 185.887349 
L 985.391351 226.722787 
L 987.271009 232.298171 
L 989.150667 236.731892 
L 991.030325 239.980334 
L 992.909984 242.303866 
L 994.789642 244.058852 
L 996.6693 245.493481 
L 998.548958 246.713473 
L 1002.308274 248.687881 
L 1004.187932 249.510461 
L 1006.06759 250.210105 
L 1007.947248 250.748259 
L 1009.826906 251.12341 
L 1013.586223 251.573032 
L 1019.225197 251.928829 
L 1022.984513 251.97586 
L 1024.864171 251.903071 
L 1024.864171 251.903071 
" style="fill:none;stroke:#1f77b4;stroke-linecap:square;stroke-width:1.5;"/>
   </g>
   <g id="patch_15">
    <path d="M 774.211765 252 
L 774.211765 34.56 
" style="fill:none;stroke:#000000;stroke-linecap:square;stroke-linejoin:miter;stroke-width:0.8;"/>
   </g>
   <g id="patch_16">
    <path d="M 1036.8 252 
L 1036.8 34.56 
" style="fill:none;stroke:#000000;stroke-linecap:square;stroke-linejoin:miter;stroke-width:0.8;"/>
   </g>
   <g id="patch_17">
    <path d="M 774.211765 252 
L 1036.8 252 
" style="fill:none;stroke:#000000;stroke-linecap:square;stroke-linejoin:miter;stroke-width:0.8;"/>
   </g>
   <g id="patch_18">
    <path d="M 774.211765 34.56 
L 1036.8 34.56 
" style="fill:none;stroke:#000000;stroke-linecap:square;stroke-linejoin:miter;stroke-width:0.8;"/>
   </g>
   <g id="legend_3">
    <g id="patch_19">
     <path d="M 781.211765 57.51625 
L 877.838327 57.51625 
Q 879.838327 57.51625 879.838327 55.51625 
L 879.838327 41.56 
Q 879.838327 39.56 877.838327 39.56 
L 781.211765 39.56 
Q 779.211765 39.56 779.211765 41.56 
L 779.211765 55.51625 
Q 779.211765 57.51625 781.211765 57.51625 
z
" style="fill:#ffffff;opacity:0.8;stroke:#cccccc;stroke-linejoin:miter;"/>
    </g>
    <g id="line2d_48">
     <path d="M 783.211765 47.658438 
L 803.211765 47.658438 
" style="fill:none;stroke:#1f77b4;stroke-linecap:square;stroke-width:1.5;"/>
    </g>
    <g id="line2d_49"/>
    <g id="text_43">
     <!-- n_estimators -->
     <g transform="translate(811.211765 51.158438)scale(0.1 -0.1)">
      <use xlink:href="#DejaVuSans-6e"/>
      <use x="63.378906" xlink:href="#DejaVuSans-5f"/>
      <use x="113.378906" xlink:href="#DejaVuSans-65"/>
      <use x="174.902344" xlink:href="#DejaVuSans-73"/>
      <use x="227.001953" xlink:href="#DejaVuSans-74"/>
      <use x="266.210938" xlink:href="#DejaVuSans-69"/>
      <use x="293.994141" xlink:href="#DejaVuSans-6d"/>
      <use x="391.40625" xlink:href="#DejaVuSans-61"/>
      <use x="452.685547" xlink:href="#DejaVuSans-74"/>
      <use x="491.894531" xlink:href="#DejaVuSans-6f"/>
      <use x="553.076172" xlink:href="#DejaVuSans-72"/>
      <use x="594.189453" xlink:href="#DejaVuSans-73"/>
     </g>
    </g>
   </g>
  </g>
 </g>
 <defs>
  <clipPath id="p54886bacc6">
   <rect height="217.44" width="262.588235" x="144" y="34.56"/>
  </clipPath>
  <clipPath id="p5e90e44bdb">
   <rect height="217.44" width="262.588235" x="459.105882" y="34.56"/>
  </clipPath>
  <clipPath id="pcb283d1c4c">
   <rect height="217.44" width="262.588235" x="774.211765" y="34.56"/>
  </clipPath>
 </defs>
</svg>
