<?xml version="1.0" encoding="utf-8" standalone="no"?>
<!DOCTYPE svg PUBLIC "-//W3C//DTD SVG 1.1//EN"
  "http://www.w3.org/Graphics/SVG/1.1/DTD/svg11.dtd">
<!-- Created with matplotlib (http://matplotlib.org/) -->
<svg height="288pt" version="1.1" viewBox="0 0 1152 288" width="1152pt" xmlns="http://www.w3.org/2000/svg" xmlns:xlink="http://www.w3.org/1999/xlink">
 <defs>
  <style type="text/css">
*{stroke-linecap:butt;stroke-linejoin:round;}
  </style>
 </defs>
 <g id="figure_1">
  <g id="patch_1">
   <path d="M 0 288 
L 1152 288 
L 1152 0 
L 0 0 
z
" style="fill:#ffffff;"/>
  </g>
  <g id="axes_1">
   <g id="patch_2">
    <path d="M 144 252 
L 406.588235 252 
L 406.588235 34.56 
L 144 34.56 
z
" style="fill:#ffffff;"/>
   </g>
   <g id="patch_3">
    <path clip-path="url(#p4eb7c5073d)" d="M 177.806343 252 
L 184.529637 252 
L 184.529637 246.790296 
L 177.806343 246.790296 
z
" style="fill:#1f77b4;opacity:0.4;"/>
   </g>
   <g id="patch_4">
    <path clip-path="url(#p4eb7c5073d)" d="M 184.529637 252 
L 191.252932 252 
L 191.252932 248.092722 
L 184.529637 248.092722 
z
" style="fill:#1f77b4;opacity:0.4;"/>
   </g>
   <g id="patch_5">
    <path clip-path="url(#p4eb7c5073d)" d="M 191.252932 252 
L 197.976227 252 
L 197.976227 249.395148 
L 191.252932 249.395148 
z
" style="fill:#1f77b4;opacity:0.4;"/>
   </g>
   <g id="patch_6">
    <path clip-path="url(#p4eb7c5073d)" d="M 197.976227 252 
L 204.699522 252 
L 204.699522 245.487871 
L 197.976227 245.487871 
z
" style="fill:#1f77b4;opacity:0.4;"/>
   </g>
   <g id="patch_7">
    <path clip-path="url(#p4eb7c5073d)" d="M 204.699522 252 
L 211.422817 252 
L 211.422817 244.185445 
L 204.699522 244.185445 
z
" style="fill:#1f77b4;opacity:0.4;"/>
   </g>
   <g id="patch_8">
    <path clip-path="url(#p4eb7c5073d)" d="M 211.422817 252 
L 218.146112 252 
L 218.146112 238.975741 
L 211.422817 238.975741 
z
" style="fill:#1f77b4;opacity:0.4;"/>
   </g>
   <g id="patch_9">
    <path clip-path="url(#p4eb7c5073d)" d="M 218.146112 252 
L 224.869406 252 
L 224.869406 235.068464 
L 218.146112 235.068464 
z
" style="fill:#1f77b4;opacity:0.4;"/>
   </g>
   <g id="patch_10">
    <path clip-path="url(#p4eb7c5073d)" d="M 224.869406 252 
L 231.592701 252 
L 231.592701 212.927224 
L 224.869406 212.927224 
z
" style="fill:#1f77b4;opacity:0.4;"/>
   </g>
   <g id="patch_11">
    <path clip-path="url(#p4eb7c5073d)" d="M 231.592701 252 
L 238.315996 252 
L 238.315996 214.22965 
L 231.592701 214.22965 
z
" style="fill:#1f77b4;opacity:0.4;"/>
   </g>
   <g id="patch_12">
    <path clip-path="url(#p4eb7c5073d)" d="M 238.315996 252 
L 245.039291 252 
L 245.039291 194.693261 
L 238.315996 194.693261 
z
" style="fill:#1f77b4;opacity:0.4;"/>
   </g>
   <g id="patch_13">
    <path clip-path="url(#p4eb7c5073d)" d="M 245.039291 252 
L 251.762586 252 
L 251.762586 175.156873 
L 245.039291 175.156873 
z
" style="fill:#1f77b4;opacity:0.4;"/>
   </g>
   <g id="patch_14">
    <path clip-path="url(#p4eb7c5073d)" d="M 251.762586 252 
L 258.485881 252 
L 258.485881 168.644744 
L 251.762586 168.644744 
z
" style="fill:#1f77b4;opacity:0.4;"/>
   </g>
   <g id="patch_15">
    <path clip-path="url(#p4eb7c5073d)" d="M 258.485881 252 
L 265.209175 252 
L 265.209175 139.991375 
L 258.485881 139.991375 
z
" style="fill:#1f77b4;opacity:0.4;"/>
   </g>
   <g id="patch_16">
    <path clip-path="url(#p4eb7c5073d)" d="M 265.209175 252 
L 271.93247 252 
L 271.93247 108.733154 
L 265.209175 108.733154 
z
" style="fill:#1f77b4;opacity:0.4;"/>
   </g>
   <g id="patch_17">
    <path clip-path="url(#p4eb7c5073d)" d="M 271.93247 252 
L 278.655765 252 
L 278.655765 106.128302 
L 271.93247 106.128302 
z
" style="fill:#1f77b4;opacity:0.4;"/>
   </g>
   <g id="patch_18">
    <path clip-path="url(#p4eb7c5073d)" d="M 278.655765 252 
L 285.37906 252 
L 285.37906 82.684636 
L 278.655765 82.684636 
z
" style="fill:#1f77b4;opacity:0.4;"/>
   </g>
   <g id="patch_19">
    <path clip-path="url(#p4eb7c5073d)" d="M 285.37906 252 
L 292.102355 252 
L 292.102355 50.123989 
L 285.37906 50.123989 
z
" style="fill:#1f77b4;opacity:0.4;"/>
   </g>
   <g id="patch_20">
    <path clip-path="url(#p4eb7c5073d)" d="M 292.102355 252 
L 298.82565 252 
L 298.82565 48.821563 
L 292.102355 48.821563 
z
" style="fill:#1f77b4;opacity:0.4;"/>
   </g>
   <g id="patch_21">
    <path clip-path="url(#p4eb7c5073d)" d="M 298.82565 252 
L 305.548944 252 
L 305.548944 78.777358 
L 298.82565 78.777358 
z
" style="fill:#1f77b4;opacity:0.4;"/>
   </g>
   <g id="patch_22">
    <path clip-path="url(#p4eb7c5073d)" d="M 305.548944 252 
L 312.272239 252 
L 312.272239 44.914286 
L 305.548944 44.914286 
z
" style="fill:#1f77b4;opacity:0.4;"/>
   </g>
   <g id="patch_23">
    <path clip-path="url(#p4eb7c5073d)" d="M 312.272239 252 
L 318.995534 252 
L 318.995534 138.688949 
L 312.272239 138.688949 
z
" style="fill:#1f77b4;opacity:0.4;"/>
   </g>
   <g id="patch_24">
    <path clip-path="url(#p4eb7c5073d)" d="M 318.995534 252 
L 325.718829 252 
L 325.718829 137.386523 
L 318.995534 137.386523 
z
" style="fill:#1f77b4;opacity:0.4;"/>
   </g>
   <g id="patch_25">
    <path clip-path="url(#p4eb7c5073d)" d="M 325.718829 252 
L 332.442124 252 
L 332.442124 158.225337 
L 325.718829 158.225337 
z
" style="fill:#1f77b4;opacity:0.4;"/>
   </g>
   <g id="patch_26">
    <path clip-path="url(#p4eb7c5073d)" d="M 332.442124 252 
L 339.165419 252 
L 339.165419 205.112668 
L 332.442124 205.112668 
z
" style="fill:#1f77b4;opacity:0.4;"/>
   </g>
   <g id="patch_27">
    <path clip-path="url(#p4eb7c5073d)" d="M 339.165419 252 
L 345.888713 252 
L 345.888713 214.22965 
L 339.165419 214.22965 
z
" style="fill:#1f77b4;opacity:0.4;"/>
   </g>
   <g id="patch_28">
    <path clip-path="url(#p4eb7c5073d)" d="M 345.888713 252 
L 352.612008 252 
L 352.612008 238.975741 
L 345.888713 238.975741 
z
" style="fill:#1f77b4;opacity:0.4;"/>
   </g>
   <g id="patch_29">
    <path clip-path="url(#p4eb7c5073d)" d="M 352.612008 252 
L 359.335303 252 
L 359.335303 242.883019 
L 352.612008 242.883019 
z
" style="fill:#1f77b4;opacity:0.4;"/>
   </g>
   <g id="patch_30">
    <path clip-path="url(#p4eb7c5073d)" d="M 359.335303 252 
L 366.058598 252 
L 366.058598 250.697574 
L 359.335303 250.697574 
z
" style="fill:#1f77b4;opacity:0.4;"/>
   </g>
   <g id="patch_31">
    <path clip-path="url(#p4eb7c5073d)" d="M 366.058598 252 
L 372.781893 252 
L 372.781893 248.092722 
L 366.058598 248.092722 
z
" style="fill:#1f77b4;opacity:0.4;"/>
   </g>
   <g id="matplotlib.axis_1">
    <g id="xtick_1">
     <g id="line2d_1">
      <defs>
       <path d="M 0 0 
L 0 3.5 
" id="m13bddc65b0" style="stroke:#000000;stroke-width:0.8;"/>
      </defs>
      <g>
       <use style="stroke:#000000;stroke-width:0.8;" x="172.071768" xlink:href="#m13bddc65b0" y="252"/>
      </g>
     </g>
     <g id="text_1">
      <!-- 0 -->
      <defs>
       <path d="M 31.78125 66.40625 
Q 24.171875 66.40625 20.328125 58.90625 
Q 16.5 51.421875 16.5 36.375 
Q 16.5 21.390625 20.328125 13.890625 
Q 24.171875 6.390625 31.78125 6.390625 
Q 39.453125 6.390625 43.28125 13.890625 
Q 47.125 21.390625 47.125 36.375 
Q 47.125 51.421875 43.28125 58.90625 
Q 39.453125 66.40625 31.78125 66.40625 
z
M 31.78125 74.21875 
Q 44.046875 74.21875 50.515625 64.515625 
Q 56.984375 54.828125 56.984375 36.375 
Q 56.984375 17.96875 50.515625 8.265625 
Q 44.046875 -1.421875 31.78125 -1.421875 
Q 19.53125 -1.421875 13.0625 8.265625 
Q 6.59375 17.96875 6.59375 36.375 
Q 6.59375 54.828125 13.0625 64.515625 
Q 19.53125 74.21875 31.78125 74.21875 
z
" id="DejaVuSans-30"/>
      </defs>
      <g transform="translate(168.890518 266.598437)scale(0.1 -0.1)">
       <use xlink:href="#DejaVuSans-30"/>
      </g>
     </g>
    </g>
    <g id="xtick_2">
     <g id="line2d_2">
      <g>
       <use style="stroke:#000000;stroke-width:0.8;" x="217.948368" xlink:href="#m13bddc65b0" y="252"/>
      </g>
     </g>
     <g id="text_2">
      <!-- 200 -->
      <defs>
       <path d="M 19.1875 8.296875 
L 53.609375 8.296875 
L 53.609375 0 
L 7.328125 0 
L 7.328125 8.296875 
Q 12.9375 14.109375 22.625 23.890625 
Q 32.328125 33.6875 34.8125 36.53125 
Q 39.546875 41.84375 41.421875 45.53125 
Q 43.3125 49.21875 43.3125 52.78125 
Q 43.3125 58.59375 39.234375 62.25 
Q 35.15625 65.921875 28.609375 65.921875 
Q 23.96875 65.921875 18.8125 64.3125 
Q 13.671875 62.703125 7.8125 59.421875 
L 7.8125 69.390625 
Q 13.765625 71.78125 18.9375 73 
Q 24.125 74.21875 28.421875 74.21875 
Q 39.75 74.21875 46.484375 68.546875 
Q 53.21875 62.890625 53.21875 53.421875 
Q 53.21875 48.921875 51.53125 44.890625 
Q 49.859375 40.875 45.40625 35.40625 
Q 44.1875 33.984375 37.640625 27.21875 
Q 31.109375 20.453125 19.1875 8.296875 
z
" id="DejaVuSans-32"/>
      </defs>
      <g transform="translate(208.404618 266.598437)scale(0.1 -0.1)">
       <use xlink:href="#DejaVuSans-32"/>
       <use x="63.623047" xlink:href="#DejaVuSans-30"/>
       <use x="127.246094" xlink:href="#DejaVuSans-30"/>
      </g>
     </g>
    </g>
    <g id="xtick_3">
     <g id="line2d_3">
      <g>
       <use style="stroke:#000000;stroke-width:0.8;" x="263.824968" xlink:href="#m13bddc65b0" y="252"/>
      </g>
     </g>
     <g id="text_3">
      <!-- 400 -->
      <defs>
       <path d="M 37.796875 64.3125 
L 12.890625 25.390625 
L 37.796875 25.390625 
z
M 35.203125 72.90625 
L 47.609375 72.90625 
L 47.609375 25.390625 
L 58.015625 25.390625 
L 58.015625 17.1875 
L 47.609375 17.1875 
L 47.609375 0 
L 37.796875 0 
L 37.796875 17.1875 
L 4.890625 17.1875 
L 4.890625 26.703125 
z
" id="DejaVuSans-34"/>
      </defs>
      <g transform="translate(254.281218 266.598437)scale(0.1 -0.1)">
       <use xlink:href="#DejaVuSans-34"/>
       <use x="63.623047" xlink:href="#DejaVuSans-30"/>
       <use x="127.246094" xlink:href="#DejaVuSans-30"/>
      </g>
     </g>
    </g>
    <g id="xtick_4">
     <g id="line2d_4">
      <g>
       <use style="stroke:#000000;stroke-width:0.8;" x="309.701568" xlink:href="#m13bddc65b0" y="252"/>
      </g>
     </g>
     <g id="text_4">
      <!-- 600 -->
      <defs>
       <path d="M 33.015625 40.375 
Q 26.375 40.375 22.484375 35.828125 
Q 18.609375 31.296875 18.609375 23.390625 
Q 18.609375 15.53125 22.484375 10.953125 
Q 26.375 6.390625 33.015625 6.390625 
Q 39.65625 6.390625 43.53125 10.953125 
Q 47.40625 15.53125 47.40625 23.390625 
Q 47.40625 31.296875 43.53125 35.828125 
Q 39.65625 40.375 33.015625 40.375 
z
M 52.59375 71.296875 
L 52.59375 62.3125 
Q 48.875 64.0625 45.09375 64.984375 
Q 41.3125 65.921875 37.59375 65.921875 
Q 27.828125 65.921875 22.671875 59.328125 
Q 17.53125 52.734375 16.796875 39.40625 
Q 19.671875 43.65625 24.015625 45.921875 
Q 28.375 48.1875 33.59375 48.1875 
Q 44.578125 48.1875 50.953125 41.515625 
Q 57.328125 34.859375 57.328125 23.390625 
Q 57.328125 12.15625 50.6875 5.359375 
Q 44.046875 -1.421875 33.015625 -1.421875 
Q 20.359375 -1.421875 13.671875 8.265625 
Q 6.984375 17.96875 6.984375 36.375 
Q 6.984375 53.65625 15.1875 63.9375 
Q 23.390625 74.21875 37.203125 74.21875 
Q 40.921875 74.21875 44.703125 73.484375 
Q 48.484375 72.75 52.59375 71.296875 
z
" id="DejaVuSans-36"/>
      </defs>
      <g transform="translate(300.157818 266.598437)scale(0.1 -0.1)">
       <use xlink:href="#DejaVuSans-36"/>
       <use x="63.623047" xlink:href="#DejaVuSans-30"/>
       <use x="127.246094" xlink:href="#DejaVuSans-30"/>
      </g>
     </g>
    </g>
    <g id="xtick_5">
     <g id="line2d_5">
      <g>
       <use style="stroke:#000000;stroke-width:0.8;" x="355.578168" xlink:href="#m13bddc65b0" y="252"/>
      </g>
     </g>
     <g id="text_5">
      <!-- 800 -->
      <defs>
       <path d="M 31.78125 34.625 
Q 24.75 34.625 20.71875 30.859375 
Q 16.703125 27.09375 16.703125 20.515625 
Q 16.703125 13.921875 20.71875 10.15625 
Q 24.75 6.390625 31.78125 6.390625 
Q 38.8125 6.390625 42.859375 10.171875 
Q 46.921875 13.96875 46.921875 20.515625 
Q 46.921875 27.09375 42.890625 30.859375 
Q 38.875 34.625 31.78125 34.625 
z
M 21.921875 38.8125 
Q 15.578125 40.375 12.03125 44.71875 
Q 8.5 49.078125 8.5 55.328125 
Q 8.5 64.0625 14.71875 69.140625 
Q 20.953125 74.21875 31.78125 74.21875 
Q 42.671875 74.21875 48.875 69.140625 
Q 55.078125 64.0625 55.078125 55.328125 
Q 55.078125 49.078125 51.53125 44.71875 
Q 48 40.375 41.703125 38.8125 
Q 48.828125 37.15625 52.796875 32.3125 
Q 56.78125 27.484375 56.78125 20.515625 
Q 56.78125 9.90625 50.3125 4.234375 
Q 43.84375 -1.421875 31.78125 -1.421875 
Q 19.734375 -1.421875 13.25 4.234375 
Q 6.78125 9.90625 6.78125 20.515625 
Q 6.78125 27.484375 10.78125 32.3125 
Q 14.796875 37.15625 21.921875 38.8125 
z
M 18.3125 54.390625 
Q 18.3125 48.734375 21.84375 45.5625 
Q 25.390625 42.390625 31.78125 42.390625 
Q 38.140625 42.390625 41.71875 45.5625 
Q 45.3125 48.734375 45.3125 54.390625 
Q 45.3125 60.0625 41.71875 63.234375 
Q 38.140625 66.40625 31.78125 66.40625 
Q 25.390625 66.40625 21.84375 63.234375 
Q 18.3125 60.0625 18.3125 54.390625 
z
" id="DejaVuSans-38"/>
      </defs>
      <g transform="translate(346.034418 266.598437)scale(0.1 -0.1)">
       <use xlink:href="#DejaVuSans-38"/>
       <use x="63.623047" xlink:href="#DejaVuSans-30"/>
       <use x="127.246094" xlink:href="#DejaVuSans-30"/>
      </g>
     </g>
    </g>
    <g id="xtick_6">
     <g id="line2d_6">
      <g>
       <use style="stroke:#000000;stroke-width:0.8;" x="401.454768" xlink:href="#m13bddc65b0" y="252"/>
      </g>
     </g>
     <g id="text_6">
      <!-- 1000 -->
      <defs>
       <path d="M 12.40625 8.296875 
L 28.515625 8.296875 
L 28.515625 63.921875 
L 10.984375 60.40625 
L 10.984375 69.390625 
L 28.421875 72.90625 
L 38.28125 72.90625 
L 38.28125 8.296875 
L 54.390625 8.296875 
L 54.390625 0 
L 12.40625 0 
z
" id="DejaVuSans-31"/>
      </defs>
      <g transform="translate(388.729768 266.598437)scale(0.1 -0.1)">
       <use xlink:href="#DejaVuSans-31"/>
       <use x="63.623047" xlink:href="#DejaVuSans-30"/>
       <use x="127.246094" xlink:href="#DejaVuSans-30"/>
       <use x="190.869141" xlink:href="#DejaVuSans-30"/>
      </g>
     </g>
    </g>
    <g id="text_7">
     <!-- n_estimators -->
     <defs>
      <path d="M 54.890625 33.015625 
L 54.890625 0 
L 45.90625 0 
L 45.90625 32.71875 
Q 45.90625 40.484375 42.875 44.328125 
Q 39.84375 48.1875 33.796875 48.1875 
Q 26.515625 48.1875 22.3125 43.546875 
Q 18.109375 38.921875 18.109375 30.90625 
L 18.109375 0 
L 9.078125 0 
L 9.078125 54.6875 
L 18.109375 54.6875 
L 18.109375 46.1875 
Q 21.34375 51.125 25.703125 53.5625 
Q 30.078125 56 35.796875 56 
Q 45.21875 56 50.046875 50.171875 
Q 54.890625 44.34375 54.890625 33.015625 
z
" id="DejaVuSans-6e"/>
      <path d="M 50.984375 -16.609375 
L 50.984375 -23.578125 
L -0.984375 -23.578125 
L -0.984375 -16.609375 
z
" id="DejaVuSans-5f"/>
      <path d="M 56.203125 29.59375 
L 56.203125 25.203125 
L 14.890625 25.203125 
Q 15.484375 15.921875 20.484375 11.0625 
Q 25.484375 6.203125 34.421875 6.203125 
Q 39.59375 6.203125 44.453125 7.46875 
Q 49.3125 8.734375 54.109375 11.28125 
L 54.109375 2.78125 
Q 49.265625 0.734375 44.1875 -0.34375 
Q 39.109375 -1.421875 33.890625 -1.421875 
Q 20.796875 -1.421875 13.15625 6.1875 
Q 5.515625 13.8125 5.515625 26.8125 
Q 5.515625 40.234375 12.765625 48.109375 
Q 20.015625 56 32.328125 56 
Q 43.359375 56 49.78125 48.890625 
Q 56.203125 41.796875 56.203125 29.59375 
z
M 47.21875 32.234375 
Q 47.125 39.59375 43.09375 43.984375 
Q 39.0625 48.390625 32.421875 48.390625 
Q 24.90625 48.390625 20.390625 44.140625 
Q 15.875 39.890625 15.1875 32.171875 
z
" id="DejaVuSans-65"/>
      <path d="M 44.28125 53.078125 
L 44.28125 44.578125 
Q 40.484375 46.53125 36.375 47.5 
Q 32.28125 48.484375 27.875 48.484375 
Q 21.1875 48.484375 17.84375 46.4375 
Q 14.5 44.390625 14.5 40.28125 
Q 14.5 37.15625 16.890625 35.375 
Q 19.28125 33.59375 26.515625 31.984375 
L 29.59375 31.296875 
Q 39.15625 29.25 43.1875 25.515625 
Q 47.21875 21.78125 47.21875 15.09375 
Q 47.21875 7.46875 41.1875 3.015625 
Q 35.15625 -1.421875 24.609375 -1.421875 
Q 20.21875 -1.421875 15.453125 -0.5625 
Q 10.6875 0.296875 5.421875 2 
L 5.421875 11.28125 
Q 10.40625 8.6875 15.234375 7.390625 
Q 20.0625 6.109375 24.8125 6.109375 
Q 31.15625 6.109375 34.5625 8.28125 
Q 37.984375 10.453125 37.984375 14.40625 
Q 37.984375 18.0625 35.515625 20.015625 
Q 33.0625 21.96875 24.703125 23.78125 
L 21.578125 24.515625 
Q 13.234375 26.265625 9.515625 29.90625 
Q 5.8125 33.546875 5.8125 39.890625 
Q 5.8125 47.609375 11.28125 51.796875 
Q 16.75 56 26.8125 56 
Q 31.78125 56 36.171875 55.265625 
Q 40.578125 54.546875 44.28125 53.078125 
z
" id="DejaVuSans-73"/>
      <path d="M 18.3125 70.21875 
L 18.3125 54.6875 
L 36.8125 54.6875 
L 36.8125 47.703125 
L 18.3125 47.703125 
L 18.3125 18.015625 
Q 18.3125 11.328125 20.140625 9.421875 
Q 21.96875 7.515625 27.59375 7.515625 
L 36.8125 7.515625 
L 36.8125 0 
L 27.59375 0 
Q 17.1875 0 13.234375 3.875 
Q 9.28125 7.765625 9.28125 18.015625 
L 9.28125 47.703125 
L 2.6875 47.703125 
L 2.6875 54.6875 
L 9.28125 54.6875 
L 9.28125 70.21875 
z
" id="DejaVuSans-74"/>
      <path d="M 9.421875 54.6875 
L 18.40625 54.6875 
L 18.40625 0 
L 9.421875 0 
z
M 9.421875 75.984375 
L 18.40625 75.984375 
L 18.40625 64.59375 
L 9.421875 64.59375 
z
" id="DejaVuSans-69"/>
      <path d="M 52 44.1875 
Q 55.375 50.25 60.0625 53.125 
Q 64.75 56 71.09375 56 
Q 79.640625 56 84.28125 50.015625 
Q 88.921875 44.046875 88.921875 33.015625 
L 88.921875 0 
L 79.890625 0 
L 79.890625 32.71875 
Q 79.890625 40.578125 77.09375 44.375 
Q 74.3125 48.1875 68.609375 48.1875 
Q 61.625 48.1875 57.5625 43.546875 
Q 53.515625 38.921875 53.515625 30.90625 
L 53.515625 0 
L 44.484375 0 
L 44.484375 32.71875 
Q 44.484375 40.625 41.703125 44.40625 
Q 38.921875 48.1875 33.109375 48.1875 
Q 26.21875 48.1875 22.15625 43.53125 
Q 18.109375 38.875 18.109375 30.90625 
L 18.109375 0 
L 9.078125 0 
L 9.078125 54.6875 
L 18.109375 54.6875 
L 18.109375 46.1875 
Q 21.1875 51.21875 25.484375 53.609375 
Q 29.78125 56 35.6875 56 
Q 41.65625 56 45.828125 52.96875 
Q 50 49.953125 52 44.1875 
z
" id="DejaVuSans-6d"/>
      <path d="M 34.28125 27.484375 
Q 23.390625 27.484375 19.1875 25 
Q 14.984375 22.515625 14.984375 16.5 
Q 14.984375 11.71875 18.140625 8.90625 
Q 21.296875 6.109375 26.703125 6.109375 
Q 34.1875 6.109375 38.703125 11.40625 
Q 43.21875 16.703125 43.21875 25.484375 
L 43.21875 27.484375 
z
M 52.203125 31.203125 
L 52.203125 0 
L 43.21875 0 
L 43.21875 8.296875 
Q 40.140625 3.328125 35.546875 0.953125 
Q 30.953125 -1.421875 24.3125 -1.421875 
Q 15.921875 -1.421875 10.953125 3.296875 
Q 6 8.015625 6 15.921875 
Q 6 25.140625 12.171875 29.828125 
Q 18.359375 34.515625 30.609375 34.515625 
L 43.21875 34.515625 
L 43.21875 35.40625 
Q 43.21875 41.609375 39.140625 45 
Q 35.0625 48.390625 27.6875 48.390625 
Q 23 48.390625 18.546875 47.265625 
Q 14.109375 46.140625 10.015625 43.890625 
L 10.015625 52.203125 
Q 14.9375 54.109375 19.578125 55.046875 
Q 24.21875 56 28.609375 56 
Q 40.484375 56 46.34375 49.84375 
Q 52.203125 43.703125 52.203125 31.203125 
z
" id="DejaVuSans-61"/>
      <path d="M 30.609375 48.390625 
Q 23.390625 48.390625 19.1875 42.75 
Q 14.984375 37.109375 14.984375 27.296875 
Q 14.984375 17.484375 19.15625 11.84375 
Q 23.34375 6.203125 30.609375 6.203125 
Q 37.796875 6.203125 41.984375 11.859375 
Q 46.1875 17.53125 46.1875 27.296875 
Q 46.1875 37.015625 41.984375 42.703125 
Q 37.796875 48.390625 30.609375 48.390625 
z
M 30.609375 56 
Q 42.328125 56 49.015625 48.375 
Q 55.71875 40.765625 55.71875 27.296875 
Q 55.71875 13.875 49.015625 6.21875 
Q 42.328125 -1.421875 30.609375 -1.421875 
Q 18.84375 -1.421875 12.171875 6.21875 
Q 5.515625 13.875 5.515625 27.296875 
Q 5.515625 40.765625 12.171875 48.375 
Q 18.84375 56 30.609375 56 
z
" id="DejaVuSans-6f"/>
      <path d="M 41.109375 46.296875 
Q 39.59375 47.171875 37.8125 47.578125 
Q 36.03125 48 33.890625 48 
Q 26.265625 48 22.1875 43.046875 
Q 18.109375 38.09375 18.109375 28.8125 
L 18.109375 0 
L 9.078125 0 
L 9.078125 54.6875 
L 18.109375 54.6875 
L 18.109375 46.1875 
Q 20.953125 51.171875 25.484375 53.578125 
Q 30.03125 56 36.53125 56 
Q 37.453125 56 38.578125 55.875 
Q 39.703125 55.765625 41.0625 55.515625 
z
" id="DejaVuSans-72"/>
     </defs>
     <g transform="translate(242.980836 280.276563)scale(0.1 -0.1)">
      <use xlink:href="#DejaVuSans-6e"/>
      <use x="63.378906" xlink:href="#DejaVuSans-5f"/>
      <use x="113.378906" xlink:href="#DejaVuSans-65"/>
      <use x="174.902344" xlink:href="#DejaVuSans-73"/>
      <use x="227.001953" xlink:href="#DejaVuSans-74"/>
      <use x="266.210938" xlink:href="#DejaVuSans-69"/>
      <use x="293.994141" xlink:href="#DejaVuSans-6d"/>
      <use x="391.40625" xlink:href="#DejaVuSans-61"/>
      <use x="452.685547" xlink:href="#DejaVuSans-74"/>
      <use x="491.894531" xlink:href="#DejaVuSans-6f"/>
      <use x="553.076172" xlink:href="#DejaVuSans-72"/>
      <use x="594.189453" xlink:href="#DejaVuSans-73"/>
     </g>
    </g>
   </g>
   <g id="matplotlib.axis_2">
    <g id="ytick_1">
     <g id="line2d_7">
      <defs>
       <path d="M 0 0 
L -3.5 0 
" id="m644abed071" style="stroke:#000000;stroke-width:0.8;"/>
      </defs>
      <g>
       <use style="stroke:#000000;stroke-width:0.8;" x="144" xlink:href="#m644abed071" y="252"/>
      </g>
     </g>
     <g id="text_8">
      <!-- 0.0000 -->
      <defs>
       <path d="M 10.6875 12.40625 
L 21 12.40625 
L 21 0 
L 10.6875 0 
z
" id="DejaVuSans-2e"/>
      </defs>
      <g transform="translate(102.009375 255.799219)scale(0.1 -0.1)">
       <use xlink:href="#DejaVuSans-30"/>
       <use x="63.623047" xlink:href="#DejaVuSans-2e"/>
       <use x="95.410156" xlink:href="#DejaVuSans-30"/>
       <use x="159.033203" xlink:href="#DejaVuSans-30"/>
       <use x="222.65625" xlink:href="#DejaVuSans-30"/>
       <use x="286.279297" xlink:href="#DejaVuSans-30"/>
      </g>
     </g>
    </g>
    <g id="ytick_2">
     <g id="line2d_8">
      <g>
       <use style="stroke:#000000;stroke-width:0.8;" x="144" xlink:href="#m644abed071" y="220.639606"/>
      </g>
     </g>
     <g id="text_9">
      <!-- 0.0005 -->
      <defs>
       <path d="M 10.796875 72.90625 
L 49.515625 72.90625 
L 49.515625 64.59375 
L 19.828125 64.59375 
L 19.828125 46.734375 
Q 21.96875 47.46875 24.109375 47.828125 
Q 26.265625 48.1875 28.421875 48.1875 
Q 40.625 48.1875 47.75 41.5 
Q 54.890625 34.8125 54.890625 23.390625 
Q 54.890625 11.625 47.5625 5.09375 
Q 40.234375 -1.421875 26.90625 -1.421875 
Q 22.3125 -1.421875 17.546875 -0.640625 
Q 12.796875 0.140625 7.71875 1.703125 
L 7.71875 11.625 
Q 12.109375 9.234375 16.796875 8.0625 
Q 21.484375 6.890625 26.703125 6.890625 
Q 35.15625 6.890625 40.078125 11.328125 
Q 45.015625 15.765625 45.015625 23.390625 
Q 45.015625 31 40.078125 35.4375 
Q 35.15625 39.890625 26.703125 39.890625 
Q 22.75 39.890625 18.8125 39.015625 
Q 14.890625 38.140625 10.796875 36.28125 
z
" id="DejaVuSans-35"/>
      </defs>
      <g transform="translate(102.009375 224.438825)scale(0.1 -0.1)">
       <use xlink:href="#DejaVuSans-30"/>
       <use x="63.623047" xlink:href="#DejaVuSans-2e"/>
       <use x="95.410156" xlink:href="#DejaVuSans-30"/>
       <use x="159.033203" xlink:href="#DejaVuSans-30"/>
       <use x="222.65625" xlink:href="#DejaVuSans-30"/>
       <use x="286.279297" xlink:href="#DejaVuSans-35"/>
      </g>
     </g>
    </g>
    <g id="ytick_3">
     <g id="line2d_9">
      <g>
       <use style="stroke:#000000;stroke-width:0.8;" x="144" xlink:href="#m644abed071" y="189.279212"/>
      </g>
     </g>
     <g id="text_10">
      <!-- 0.0010 -->
      <g transform="translate(102.009375 193.078431)scale(0.1 -0.1)">
       <use xlink:href="#DejaVuSans-30"/>
       <use x="63.623047" xlink:href="#DejaVuSans-2e"/>
       <use x="95.410156" xlink:href="#DejaVuSans-30"/>
       <use x="159.033203" xlink:href="#DejaVuSans-30"/>
       <use x="222.65625" xlink:href="#DejaVuSans-31"/>
       <use x="286.279297" xlink:href="#DejaVuSans-30"/>
      </g>
     </g>
    </g>
    <g id="ytick_4">
     <g id="line2d_10">
      <g>
       <use style="stroke:#000000;stroke-width:0.8;" x="144" xlink:href="#m644abed071" y="157.918818"/>
      </g>
     </g>
     <g id="text_11">
      <!-- 0.0015 -->
      <g transform="translate(102.009375 161.718036)scale(0.1 -0.1)">
       <use xlink:href="#DejaVuSans-30"/>
       <use x="63.623047" xlink:href="#DejaVuSans-2e"/>
       <use x="95.410156" xlink:href="#DejaVuSans-30"/>
       <use x="159.033203" xlink:href="#DejaVuSans-30"/>
       <use x="222.65625" xlink:href="#DejaVuSans-31"/>
       <use x="286.279297" xlink:href="#DejaVuSans-35"/>
      </g>
     </g>
    </g>
    <g id="ytick_5">
     <g id="line2d_11">
      <g>
       <use style="stroke:#000000;stroke-width:0.8;" x="144" xlink:href="#m644abed071" y="126.558424"/>
      </g>
     </g>
     <g id="text_12">
      <!-- 0.0020 -->
      <g transform="translate(102.009375 130.357642)scale(0.1 -0.1)">
       <use xlink:href="#DejaVuSans-30"/>
       <use x="63.623047" xlink:href="#DejaVuSans-2e"/>
       <use x="95.410156" xlink:href="#DejaVuSans-30"/>
       <use x="159.033203" xlink:href="#DejaVuSans-30"/>
       <use x="222.65625" xlink:href="#DejaVuSans-32"/>
       <use x="286.279297" xlink:href="#DejaVuSans-30"/>
      </g>
     </g>
    </g>
    <g id="ytick_6">
     <g id="line2d_12">
      <g>
       <use style="stroke:#000000;stroke-width:0.8;" x="144" xlink:href="#m644abed071" y="95.19803"/>
      </g>
     </g>
     <g id="text_13">
      <!-- 0.0025 -->
      <g transform="translate(102.009375 98.997248)scale(0.1 -0.1)">
       <use xlink:href="#DejaVuSans-30"/>
       <use x="63.623047" xlink:href="#DejaVuSans-2e"/>
       <use x="95.410156" xlink:href="#DejaVuSans-30"/>
       <use x="159.033203" xlink:href="#DejaVuSans-30"/>
       <use x="222.65625" xlink:href="#DejaVuSans-32"/>
       <use x="286.279297" xlink:href="#DejaVuSans-35"/>
      </g>
     </g>
    </g>
    <g id="ytick_7">
     <g id="line2d_13">
      <g>
       <use style="stroke:#000000;stroke-width:0.8;" x="144" xlink:href="#m644abed071" y="63.837635"/>
      </g>
     </g>
     <g id="text_14">
      <!-- 0.0030 -->
      <defs>
       <path d="M 40.578125 39.3125 
Q 47.65625 37.796875 51.625 33 
Q 55.609375 28.21875 55.609375 21.1875 
Q 55.609375 10.40625 48.1875 4.484375 
Q 40.765625 -1.421875 27.09375 -1.421875 
Q 22.515625 -1.421875 17.65625 -0.515625 
Q 12.796875 0.390625 7.625 2.203125 
L 7.625 11.71875 
Q 11.71875 9.328125 16.59375 8.109375 
Q 21.484375 6.890625 26.8125 6.890625 
Q 36.078125 6.890625 40.9375 10.546875 
Q 45.796875 14.203125 45.796875 21.1875 
Q 45.796875 27.640625 41.28125 31.265625 
Q 36.765625 34.90625 28.71875 34.90625 
L 20.21875 34.90625 
L 20.21875 43.015625 
L 29.109375 43.015625 
Q 36.375 43.015625 40.234375 45.921875 
Q 44.09375 48.828125 44.09375 54.296875 
Q 44.09375 59.90625 40.109375 62.90625 
Q 36.140625 65.921875 28.71875 65.921875 
Q 24.65625 65.921875 20.015625 65.03125 
Q 15.375 64.15625 9.8125 62.3125 
L 9.8125 71.09375 
Q 15.4375 72.65625 20.34375 73.4375 
Q 25.25 74.21875 29.59375 74.21875 
Q 40.828125 74.21875 47.359375 69.109375 
Q 53.90625 64.015625 53.90625 55.328125 
Q 53.90625 49.265625 50.4375 45.09375 
Q 46.96875 40.921875 40.578125 39.3125 
z
" id="DejaVuSans-33"/>
      </defs>
      <g transform="translate(102.009375 67.636854)scale(0.1 -0.1)">
       <use xlink:href="#DejaVuSans-30"/>
       <use x="63.623047" xlink:href="#DejaVuSans-2e"/>
       <use x="95.410156" xlink:href="#DejaVuSans-30"/>
       <use x="159.033203" xlink:href="#DejaVuSans-30"/>
       <use x="222.65625" xlink:href="#DejaVuSans-33"/>
       <use x="286.279297" xlink:href="#DejaVuSans-30"/>
      </g>
     </g>
    </g>
   </g>
   <g id="line2d_14">
    <path clip-path="url(#p4eb7c5073d)" d="M 155.935829 251.981716 
L 161.574803 251.894476 
L 165.334119 251.692754 
L 169.093436 251.288775 
L 174.73241 250.32372 
L 180.371384 249.344167 
L 186.010358 248.670695 
L 191.649333 247.981718 
L 195.408649 247.258548 
L 199.167965 246.211058 
L 202.927281 244.816119 
L 206.686597 243.105819 
L 210.445914 241.067429 
L 212.325572 239.854982 
L 214.20523 238.434005 
L 216.084888 236.735072 
L 217.964546 234.708925 
L 219.844204 232.350978 
L 223.60352 226.891879 
L 231.122153 215.320395 
L 233.001811 212.213278 
L 234.881469 208.777157 
L 236.761127 204.91809 
L 238.640785 200.641055 
L 246.159417 182.483738 
L 253.67805 166.178227 
L 255.557708 161.260085 
L 257.437366 155.639582 
L 259.317024 149.326257 
L 263.07634 135.311008 
L 266.835656 121.305777 
L 268.715314 114.945576 
L 270.594972 109.166197 
L 272.474631 103.924362 
L 276.233947 94.44408 
L 285.632237 71.639547 
L 287.511895 67.822599 
L 289.391553 64.729536 
L 291.271211 62.522132 
L 293.15087 61.273718 
L 295.030528 60.965469 
L 296.910186 61.512399 
L 298.789844 62.81279 
L 300.669502 64.8048 
L 302.54916 67.508062 
L 304.428818 71.029719 
L 306.308476 75.525272 
L 308.188134 81.12266 
L 310.067792 87.83675 
L 311.94745 95.51184 
L 319.466083 128.602691 
L 323.225399 143.074732 
L 326.984715 157.18861 
L 330.744031 172.419975 
L 336.383006 195.902604 
L 338.262664 203.08672 
L 340.142322 209.711891 
L 342.02198 215.72806 
L 343.901638 221.123608 
L 345.781296 225.904731 
L 347.660954 230.085194 
L 349.540612 233.686791 
L 351.42027 236.744704 
L 353.299928 239.310682 
L 355.179587 241.449868 
L 357.059245 243.231751 
L 358.938903 244.719393 
L 360.818561 245.962046 
L 362.698219 246.994335 
L 364.577877 247.841615 
L 366.457535 248.527847 
L 370.216851 249.535233 
L 375.855826 250.594635 
L 381.4948 251.40609 
L 385.254116 251.742434 
L 390.89309 251.952123 
L 394.652406 251.983 
L 394.652406 251.983 
" style="fill:none;stroke:#1f77b4;stroke-linecap:square;stroke-width:1.5;"/>
   </g>
   <g id="patch_32">
    <path d="M 144 252 
L 144 34.56 
" style="fill:none;stroke:#000000;stroke-linecap:square;stroke-linejoin:miter;stroke-width:0.8;"/>
   </g>
   <g id="patch_33">
    <path d="M 406.588235 252 
L 406.588235 34.56 
" style="fill:none;stroke:#000000;stroke-linecap:square;stroke-linejoin:miter;stroke-width:0.8;"/>
   </g>
   <g id="patch_34">
    <path d="M 144 252 
L 406.588235 252 
" style="fill:none;stroke:#000000;stroke-linecap:square;stroke-linejoin:miter;stroke-width:0.8;"/>
   </g>
   <g id="patch_35">
    <path d="M 144 34.56 
L 406.588235 34.56 
" style="fill:none;stroke:#000000;stroke-linecap:square;stroke-linejoin:miter;stroke-width:0.8;"/>
   </g>
  </g>
  <g id="axes_2">
   <g id="patch_36">
    <path d="M 459.105882 252 
L 721.694118 252 
L 721.694118 34.56 
L 459.105882 34.56 
z
" style="fill:#ffffff;"/>
   </g>
   <g id="patch_37">
    <path clip-path="url(#p3a30b8d8dc)" d="M 483.798947 252 
L 488.062989 252 
L 488.062989 142.058427 
L 483.798947 142.058427 
z
" style="fill:#1f77b4;opacity:0.4;"/>
   </g>
   <g id="patch_38">
    <path clip-path="url(#p3a30b8d8dc)" d="M 488.062989 252 
L 492.327031 252 
L 492.327031 241.529374 
L 488.062989 241.529374 
z
" style="fill:#1f77b4;opacity:0.4;"/>
   </g>
   <g id="patch_39">
    <path clip-path="url(#p3a30b8d8dc)" d="M 492.327031 252 
L 496.591074 252 
L 496.591074 248.509791 
L 492.327031 248.509791 
z
" style="fill:#1f77b4;opacity:0.4;"/>
   </g>
   <g id="patch_40">
    <path clip-path="url(#p3a30b8d8dc)" d="M 496.591074 252 
L 500.855116 252 
L 500.855116 251.418299 
L 496.591074 251.418299 
z
" style="fill:#1f77b4;opacity:0.4;"/>
   </g>
   <g id="patch_41">
    <path clip-path="url(#p3a30b8d8dc)" d="M 500.855116 252 
L 505.119158 252 
L 505.119158 252 
L 500.855116 252 
z
" style="fill:#1f77b4;opacity:0.4;"/>
   </g>
   <g id="patch_42">
    <path clip-path="url(#p3a30b8d8dc)" d="M 505.119158 252 
L 509.3832 252 
L 509.3832 252 
L 505.119158 252 
z
" style="fill:#1f77b4;opacity:0.4;"/>
   </g>
   <g id="patch_43">
    <path clip-path="url(#p3a30b8d8dc)" d="M 509.3832 252 
L 513.647242 252 
L 513.647242 252 
L 509.3832 252 
z
" style="fill:#1f77b4;opacity:0.4;"/>
   </g>
   <g id="patch_44">
    <path clip-path="url(#p3a30b8d8dc)" d="M 513.647242 252 
L 517.911284 252 
L 517.911284 252 
L 513.647242 252 
z
" style="fill:#1f77b4;opacity:0.4;"/>
   </g>
   <g id="patch_45">
    <path clip-path="url(#p3a30b8d8dc)" d="M 517.911284 252 
L 522.175326 252 
L 522.175326 252 
L 517.911284 252 
z
" style="fill:#1f77b4;opacity:0.4;"/>
   </g>
   <g id="patch_46">
    <path clip-path="url(#p3a30b8d8dc)" d="M 522.175326 252 
L 526.439368 252 
L 526.439368 252 
L 522.175326 252 
z
" style="fill:#1f77b4;opacity:0.4;"/>
   </g>
   <g id="patch_47">
    <path clip-path="url(#p3a30b8d8dc)" d="M 526.439368 252 
L 530.70341 252 
L 530.70341 252 
L 526.439368 252 
z
" style="fill:#1f77b4;opacity:0.4;"/>
   </g>
   <g id="patch_48">
    <path clip-path="url(#p3a30b8d8dc)" d="M 530.70341 252 
L 534.967453 252 
L 534.967453 251.418299 
L 530.70341 251.418299 
z
" style="fill:#1f77b4;opacity:0.4;"/>
   </g>
   <g id="patch_49">
    <path clip-path="url(#p3a30b8d8dc)" d="M 534.967453 252 
L 539.231495 252 
L 539.231495 252 
L 534.967453 252 
z
" style="fill:#1f77b4;opacity:0.4;"/>
   </g>
   <g id="patch_50">
    <path clip-path="url(#p3a30b8d8dc)" d="M 539.231495 252 
L 543.495537 252 
L 543.495537 252 
L 539.231495 252 
z
" style="fill:#1f77b4;opacity:0.4;"/>
   </g>
   <g id="patch_51">
    <path clip-path="url(#p3a30b8d8dc)" d="M 543.495537 252 
L 547.759579 252 
L 547.759579 252 
L 543.495537 252 
z
" style="fill:#1f77b4;opacity:0.4;"/>
   </g>
   <g id="patch_52">
    <path clip-path="url(#p3a30b8d8dc)" d="M 547.759579 252 
L 552.023621 252 
L 552.023621 251.418299 
L 547.759579 251.418299 
z
" style="fill:#1f77b4;opacity:0.4;"/>
   </g>
   <g id="patch_53">
    <path clip-path="url(#p3a30b8d8dc)" d="M 552.023621 252 
L 556.287663 252 
L 556.287663 251.418299 
L 552.023621 251.418299 
z
" style="fill:#1f77b4;opacity:0.4;"/>
   </g>
   <g id="patch_54">
    <path clip-path="url(#p3a30b8d8dc)" d="M 556.287663 252 
L 560.551705 252 
L 560.551705 250.254896 
L 556.287663 250.254896 
z
" style="fill:#1f77b4;opacity:0.4;"/>
   </g>
   <g id="patch_55">
    <path clip-path="url(#p3a30b8d8dc)" d="M 560.551705 252 
L 564.815747 252 
L 564.815747 246.182986 
L 560.551705 246.182986 
z
" style="fill:#1f77b4;opacity:0.4;"/>
   </g>
   <g id="patch_56">
    <path clip-path="url(#p3a30b8d8dc)" d="M 564.815747 252 
L 569.079789 252 
L 569.079789 250.836597 
L 564.815747 250.836597 
z
" style="fill:#1f77b4;opacity:0.4;"/>
   </g>
   <g id="patch_57">
    <path clip-path="url(#p3a30b8d8dc)" d="M 569.079789 252 
L 573.343832 252 
L 573.343832 245.601284 
L 569.079789 245.601284 
z
" style="fill:#1f77b4;opacity:0.4;"/>
   </g>
   <g id="patch_58">
    <path clip-path="url(#p3a30b8d8dc)" d="M 573.343832 252 
L 577.607874 252 
L 577.607874 234.548957 
L 573.343832 234.548957 
z
" style="fill:#1f77b4;opacity:0.4;"/>
   </g>
   <g id="patch_59">
    <path clip-path="url(#p3a30b8d8dc)" d="M 577.607874 252 
L 581.871916 252 
L 581.871916 232.222151 
L 577.607874 232.222151 
z
" style="fill:#1f77b4;opacity:0.4;"/>
   </g>
   <g id="patch_60">
    <path clip-path="url(#p3a30b8d8dc)" d="M 581.871916 252 
L 586.135958 252 
L 586.135958 216.516212 
L 581.871916 216.516212 
z
" style="fill:#1f77b4;opacity:0.4;"/>
   </g>
   <g id="patch_61">
    <path clip-path="url(#p3a30b8d8dc)" d="M 586.135958 252 
L 590.4 252 
L 590.4 211.8626 
L 586.135958 211.8626 
z
" style="fill:#1f77b4;opacity:0.4;"/>
   </g>
   <g id="patch_62">
    <path clip-path="url(#p3a30b8d8dc)" d="M 590.4 252 
L 594.664042 252 
L 594.664042 195.57496 
L 590.4 195.57496 
z
" style="fill:#1f77b4;opacity:0.4;"/>
   </g>
   <g id="patch_63">
    <path clip-path="url(#p3a30b8d8dc)" d="M 594.664042 252 
L 598.928084 252 
L 598.928084 172.306902 
L 594.664042 172.306902 
z
" style="fill:#1f77b4;opacity:0.4;"/>
   </g>
   <g id="patch_64">
    <path clip-path="url(#p3a30b8d8dc)" d="M 598.928084 252 
L 603.192126 252 
L 603.192126 158.346067 
L 598.928084 158.346067 
z
" style="fill:#1f77b4;opacity:0.4;"/>
   </g>
   <g id="patch_65">
    <path clip-path="url(#p3a30b8d8dc)" d="M 603.192126 252 
L 607.456168 252 
L 607.456168 102.502729 
L 603.192126 102.502729 
z
" style="fill:#1f77b4;opacity:0.4;"/>
   </g>
   <g id="patch_66">
    <path clip-path="url(#p3a30b8d8dc)" d="M 607.456168 252 
L 611.720211 252 
L 611.720211 75.744462 
L 607.456168 75.744462 
z
" style="fill:#1f77b4;opacity:0.4;"/>
   </g>
   <g id="patch_67">
    <path clip-path="url(#p3a30b8d8dc)" d="M 611.720211 252 
L 615.984253 252 
L 615.984253 44.914286 
L 611.720211 44.914286 
z
" style="fill:#1f77b4;opacity:0.4;"/>
   </g>
   <g id="patch_68">
    <path clip-path="url(#p3a30b8d8dc)" d="M 615.984253 252 
L 620.248295 252 
L 620.248295 59.456822 
L 615.984253 59.456822 
z
" style="fill:#1f77b4;opacity:0.4;"/>
   </g>
   <g id="patch_69">
    <path clip-path="url(#p3a30b8d8dc)" d="M 620.248295 252 
L 624.512337 252 
L 624.512337 70.509149 
L 620.248295 70.509149 
z
" style="fill:#1f77b4;opacity:0.4;"/>
   </g>
   <g id="patch_70">
    <path clip-path="url(#p3a30b8d8dc)" d="M 624.512337 252 
L 628.776379 252 
L 628.776379 47.822793 
L 624.512337 47.822793 
z
" style="fill:#1f77b4;opacity:0.4;"/>
   </g>
   <g id="patch_71">
    <path clip-path="url(#p3a30b8d8dc)" d="M 628.776379 252 
L 633.040421 252 
L 633.040421 58.87512 
L 628.776379 58.87512 
z
" style="fill:#1f77b4;opacity:0.4;"/>
   </g>
   <g id="patch_72">
    <path clip-path="url(#p3a30b8d8dc)" d="M 633.040421 252 
L 637.304463 252 
L 637.304463 62.365329 
L 633.040421 62.365329 
z
" style="fill:#1f77b4;opacity:0.4;"/>
   </g>
   <g id="patch_73">
    <path clip-path="url(#p3a30b8d8dc)" d="M 637.304463 252 
L 641.568505 252 
L 641.568505 122.862279 
L 637.304463 122.862279 
z
" style="fill:#1f77b4;opacity:0.4;"/>
   </g>
   <g id="patch_74">
    <path clip-path="url(#p3a30b8d8dc)" d="M 641.568505 252 
L 645.832547 252 
L 645.832547 126.934189 
L 641.568505 126.934189 
z
" style="fill:#1f77b4;opacity:0.4;"/>
   </g>
   <g id="patch_75">
    <path clip-path="url(#p3a30b8d8dc)" d="M 645.832547 252 
L 650.09659 252 
L 650.09659 128.097592 
L 645.832547 128.097592 
z
" style="fill:#1f77b4;opacity:0.4;"/>
   </g>
   <g id="patch_76">
    <path clip-path="url(#p3a30b8d8dc)" d="M 650.09659 252 
L 654.360632 252 
L 654.360632 185.104334 
L 650.09659 185.104334 
z
" style="fill:#1f77b4;opacity:0.4;"/>
   </g>
   <g id="patch_77">
    <path clip-path="url(#p3a30b8d8dc)" d="M 654.360632 252 
L 658.624674 252 
L 658.624674 188.594543 
L 654.360632 188.594543 
z
" style="fill:#1f77b4;opacity:0.4;"/>
   </g>
   <g id="patch_78">
    <path clip-path="url(#p3a30b8d8dc)" d="M 658.624674 252 
L 662.888716 252 
L 662.888716 200.810273 
L 658.624674 200.810273 
z
" style="fill:#1f77b4;opacity:0.4;"/>
   </g>
   <g id="patch_79">
    <path clip-path="url(#p3a30b8d8dc)" d="M 662.888716 252 
L 667.152758 252 
L 667.152758 215.93451 
L 662.888716 215.93451 
z
" style="fill:#1f77b4;opacity:0.4;"/>
   </g>
   <g id="patch_80">
    <path clip-path="url(#p3a30b8d8dc)" d="M 667.152758 252 
L 671.4168 252 
L 671.4168 229.895345 
L 667.152758 229.895345 
z
" style="fill:#1f77b4;opacity:0.4;"/>
   </g>
   <g id="patch_81">
    <path clip-path="url(#p3a30b8d8dc)" d="M 671.4168 252 
L 675.680842 252 
L 675.680842 239.202568 
L 671.4168 239.202568 
z
" style="fill:#1f77b4;opacity:0.4;"/>
   </g>
   <g id="patch_82">
    <path clip-path="url(#p3a30b8d8dc)" d="M 675.680842 252 
L 679.944884 252 
L 679.944884 245.601284 
L 675.680842 245.601284 
z
" style="fill:#1f77b4;opacity:0.4;"/>
   </g>
   <g id="patch_83">
    <path clip-path="url(#p3a30b8d8dc)" d="M 679.944884 252 
L 684.208926 252 
L 684.208926 247.92809 
L 679.944884 247.92809 
z
" style="fill:#1f77b4;opacity:0.4;"/>
   </g>
   <g id="patch_84">
    <path clip-path="url(#p3a30b8d8dc)" d="M 684.208926 252 
L 688.472969 252 
L 688.472969 250.254896 
L 684.208926 250.254896 
z
" style="fill:#1f77b4;opacity:0.4;"/>
   </g>
   <g id="patch_85">
    <path clip-path="url(#p3a30b8d8dc)" d="M 688.472969 252 
L 692.737011 252 
L 692.737011 250.254896 
L 688.472969 250.254896 
z
" style="fill:#1f77b4;opacity:0.4;"/>
   </g>
   <g id="patch_86">
    <path clip-path="url(#p3a30b8d8dc)" d="M 692.737011 252 
L 697.001053 252 
L 697.001053 250.254896 
L 692.737011 250.254896 
z
" style="fill:#1f77b4;opacity:0.4;"/>
   </g>
   <g id="matplotlib.axis_3">
    <g id="xtick_7">
     <g id="line2d_15">
      <g>
       <use style="stroke:#000000;stroke-width:0.8;" x="477.922373" xlink:href="#m13bddc65b0" y="252"/>
      </g>
     </g>
     <g id="text_15">
      <!-- 0 -->
      <g transform="translate(474.741123 266.598437)scale(0.1 -0.1)">
       <use xlink:href="#DejaVuSans-30"/>
      </g>
     </g>
    </g>
    <g id="xtick_8">
     <g id="line2d_16">
      <g>
       <use style="stroke:#000000;stroke-width:0.8;" x="524.934965" xlink:href="#m13bddc65b0" y="252"/>
      </g>
     </g>
     <g id="text_16">
      <!-- 200 -->
      <g transform="translate(515.391215 266.598437)scale(0.1 -0.1)">
       <use xlink:href="#DejaVuSans-32"/>
       <use x="63.623047" xlink:href="#DejaVuSans-30"/>
       <use x="127.246094" xlink:href="#DejaVuSans-30"/>
      </g>
     </g>
    </g>
    <g id="xtick_9">
     <g id="line2d_17">
      <g>
       <use style="stroke:#000000;stroke-width:0.8;" x="571.947558" xlink:href="#m13bddc65b0" y="252"/>
      </g>
     </g>
     <g id="text_17">
      <!-- 400 -->
      <g transform="translate(562.403808 266.598437)scale(0.1 -0.1)">
       <use xlink:href="#DejaVuSans-34"/>
       <use x="63.623047" xlink:href="#DejaVuSans-30"/>
       <use x="127.246094" xlink:href="#DejaVuSans-30"/>
      </g>
     </g>
    </g>
    <g id="xtick_10">
     <g id="line2d_18">
      <g>
       <use style="stroke:#000000;stroke-width:0.8;" x="618.96015" xlink:href="#m13bddc65b0" y="252"/>
      </g>
     </g>
     <g id="text_18">
      <!-- 600 -->
      <g transform="translate(609.4164 266.598437)scale(0.1 -0.1)">
       <use xlink:href="#DejaVuSans-36"/>
       <use x="63.623047" xlink:href="#DejaVuSans-30"/>
       <use x="127.246094" xlink:href="#DejaVuSans-30"/>
      </g>
     </g>
    </g>
    <g id="xtick_11">
     <g id="line2d_19">
      <g>
       <use style="stroke:#000000;stroke-width:0.8;" x="665.972742" xlink:href="#m13bddc65b0" y="252"/>
      </g>
     </g>
     <g id="text_19">
      <!-- 800 -->
      <g transform="translate(656.428992 266.598437)scale(0.1 -0.1)">
       <use xlink:href="#DejaVuSans-38"/>
       <use x="63.623047" xlink:href="#DejaVuSans-30"/>
       <use x="127.246094" xlink:href="#DejaVuSans-30"/>
      </g>
     </g>
    </g>
    <g id="xtick_12">
     <g id="line2d_20">
      <g>
       <use style="stroke:#000000;stroke-width:0.8;" x="712.985334" xlink:href="#m13bddc65b0" y="252"/>
      </g>
     </g>
     <g id="text_20">
      <!-- 1000 -->
      <g transform="translate(700.260334 266.598437)scale(0.1 -0.1)">
       <use xlink:href="#DejaVuSans-31"/>
       <use x="63.623047" xlink:href="#DejaVuSans-30"/>
       <use x="127.246094" xlink:href="#DejaVuSans-30"/>
       <use x="190.869141" xlink:href="#DejaVuSans-30"/>
      </g>
     </g>
    </g>
    <g id="text_21">
     <!-- n_estimators -->
     <g transform="translate(558.086719 280.276563)scale(0.1 -0.1)">
      <use xlink:href="#DejaVuSans-6e"/>
      <use x="63.378906" xlink:href="#DejaVuSans-5f"/>
      <use x="113.378906" xlink:href="#DejaVuSans-65"/>
      <use x="174.902344" xlink:href="#DejaVuSans-73"/>
      <use x="227.001953" xlink:href="#DejaVuSans-74"/>
      <use x="266.210938" xlink:href="#DejaVuSans-69"/>
      <use x="293.994141" xlink:href="#DejaVuSans-6d"/>
      <use x="391.40625" xlink:href="#DejaVuSans-61"/>
      <use x="452.685547" xlink:href="#DejaVuSans-74"/>
      <use x="491.894531" xlink:href="#DejaVuSans-6f"/>
      <use x="553.076172" xlink:href="#DejaVuSans-72"/>
      <use x="594.189453" xlink:href="#DejaVuSans-73"/>
     </g>
    </g>
   </g>
   <g id="matplotlib.axis_4">
    <g id="ytick_8">
     <g id="line2d_21">
      <g>
       <use style="stroke:#000000;stroke-width:0.8;" x="459.105882" xlink:href="#m644abed071" y="252"/>
      </g>
     </g>
     <g id="text_22">
      <!-- 0.000 -->
      <g transform="translate(423.477757 255.799219)scale(0.1 -0.1)">
       <use xlink:href="#DejaVuSans-30"/>
       <use x="63.623047" xlink:href="#DejaVuSans-2e"/>
       <use x="95.410156" xlink:href="#DejaVuSans-30"/>
       <use x="159.033203" xlink:href="#DejaVuSans-30"/>
       <use x="222.65625" xlink:href="#DejaVuSans-30"/>
      </g>
     </g>
    </g>
    <g id="ytick_9">
     <g id="line2d_22">
      <g>
       <use style="stroke:#000000;stroke-width:0.8;" x="459.105882" xlink:href="#m644abed071" y="204.399638"/>
      </g>
     </g>
     <g id="text_23">
      <!-- 0.001 -->
      <g transform="translate(423.477757 208.198857)scale(0.1 -0.1)">
       <use xlink:href="#DejaVuSans-30"/>
       <use x="63.623047" xlink:href="#DejaVuSans-2e"/>
       <use x="95.410156" xlink:href="#DejaVuSans-30"/>
       <use x="159.033203" xlink:href="#DejaVuSans-30"/>
       <use x="222.65625" xlink:href="#DejaVuSans-31"/>
      </g>
     </g>
    </g>
    <g id="ytick_10">
     <g id="line2d_23">
      <g>
       <use style="stroke:#000000;stroke-width:0.8;" x="459.105882" xlink:href="#m644abed071" y="156.799277"/>
      </g>
     </g>
     <g id="text_24">
      <!-- 0.002 -->
      <g transform="translate(423.477757 160.598495)scale(0.1 -0.1)">
       <use xlink:href="#DejaVuSans-30"/>
       <use x="63.623047" xlink:href="#DejaVuSans-2e"/>
       <use x="95.410156" xlink:href="#DejaVuSans-30"/>
       <use x="159.033203" xlink:href="#DejaVuSans-30"/>
       <use x="222.65625" xlink:href="#DejaVuSans-32"/>
      </g>
     </g>
    </g>
    <g id="ytick_11">
     <g id="line2d_24">
      <g>
       <use style="stroke:#000000;stroke-width:0.8;" x="459.105882" xlink:href="#m644abed071" y="109.198915"/>
      </g>
     </g>
     <g id="text_25">
      <!-- 0.003 -->
      <g transform="translate(423.477757 112.998134)scale(0.1 -0.1)">
       <use xlink:href="#DejaVuSans-30"/>
       <use x="63.623047" xlink:href="#DejaVuSans-2e"/>
       <use x="95.410156" xlink:href="#DejaVuSans-30"/>
       <use x="159.033203" xlink:href="#DejaVuSans-30"/>
       <use x="222.65625" xlink:href="#DejaVuSans-33"/>
      </g>
     </g>
    </g>
    <g id="ytick_12">
     <g id="line2d_25">
      <g>
       <use style="stroke:#000000;stroke-width:0.8;" x="459.105882" xlink:href="#m644abed071" y="61.598553"/>
      </g>
     </g>
     <g id="text_26">
      <!-- 0.004 -->
      <g transform="translate(423.477757 65.397772)scale(0.1 -0.1)">
       <use xlink:href="#DejaVuSans-30"/>
       <use x="63.623047" xlink:href="#DejaVuSans-2e"/>
       <use x="95.410156" xlink:href="#DejaVuSans-30"/>
       <use x="159.033203" xlink:href="#DejaVuSans-30"/>
       <use x="222.65625" xlink:href="#DejaVuSans-34"/>
      </g>
     </g>
    </g>
   </g>
   <g id="line2d_26">
    <path clip-path="url(#p3a30b8d8dc)" d="M 471.041711 251.546843 
L 472.921369 250.482854 
L 474.801027 247.774099 
L 476.680686 242.220658 
L 478.560344 233.194637 
L 480.440002 221.923942 
L 482.31966 211.913902 
L 484.199318 207.302137 
L 486.078976 210.008464 
L 487.958634 218.353689 
L 489.838292 228.535053 
L 491.71795 237.310813 
L 493.597608 243.412938 
L 495.477266 247.140071 
L 497.356925 249.301534 
L 499.236583 250.555005 
L 501.116241 251.27897 
L 502.995899 251.676006 
L 504.875557 251.872275 
L 508.634873 251.987448 
L 521.79248 251.978261 
L 534.950086 251.845834 
L 540.589061 251.944602 
L 546.228035 251.77113 
L 551.867009 251.38082 
L 553.746667 251.066554 
L 555.626325 250.567002 
L 561.2653 248.706658 
L 565.024616 248.040042 
L 566.904274 247.389514 
L 568.783932 246.106057 
L 570.66359 244.077637 
L 572.543248 241.427303 
L 576.302564 235.206347 
L 578.182222 231.838154 
L 580.061881 228.174319 
L 581.941539 224.125301 
L 583.821197 219.716966 
L 585.700855 214.96885 
L 587.580513 209.747455 
L 589.460171 203.804853 
L 591.339829 196.953351 
L 593.219487 189.168362 
L 595.099145 180.527861 
L 596.978803 171.042671 
L 598.858461 160.487035 
L 600.738119 148.415006 
L 602.617778 134.516905 
L 608.256752 88.685285 
L 610.13641 76.333545 
L 612.016068 67.006956 
L 613.895726 60.965308 
L 615.775384 57.982001 
L 617.655042 57.150807 
L 619.5347 57.043689 
L 621.414358 56.496593 
L 623.294017 55.434059 
L 625.173675 54.852174 
L 627.053333 55.93549 
L 628.932991 59.234884 
L 630.812649 64.634565 
L 632.692307 71.84161 
L 634.571965 80.640621 
L 640.210939 110.069077 
L 642.090597 117.751645 
L 643.970256 124.570292 
L 645.849914 132.112184 
L 647.729572 141.622519 
L 653.368546 175.169685 
L 655.248204 183.607506 
L 657.127862 190.465177 
L 664.646495 215.736144 
L 666.526153 221.361192 
L 668.405811 226.360315 
L 670.285469 230.833231 
L 672.165127 234.86701 
L 674.044785 238.451355 
L 675.924443 241.508496 
L 677.804101 243.976703 
L 679.683759 245.869161 
L 681.563417 247.27052 
L 683.443075 248.290241 
L 685.322734 249.020546 
L 687.202392 249.531163 
L 690.961708 250.180574 
L 702.239656 251.824377 
L 705.998973 251.964326 
L 709.758289 251.884798 
L 709.758289 251.884798 
" style="fill:none;stroke:#1f77b4;stroke-linecap:square;stroke-width:1.5;"/>
   </g>
   <g id="patch_87">
    <path d="M 459.105882 252 
L 459.105882 34.56 
" style="fill:none;stroke:#000000;stroke-linecap:square;stroke-linejoin:miter;stroke-width:0.8;"/>
   </g>
   <g id="patch_88">
    <path d="M 721.694118 252 
L 721.694118 34.56 
" style="fill:none;stroke:#000000;stroke-linecap:square;stroke-linejoin:miter;stroke-width:0.8;"/>
   </g>
   <g id="patch_89">
    <path d="M 459.105882 252 
L 721.694118 252 
" style="fill:none;stroke:#000000;stroke-linecap:square;stroke-linejoin:miter;stroke-width:0.8;"/>
   </g>
   <g id="patch_90">
    <path d="M 459.105882 34.56 
L 721.694118 34.56 
" style="fill:none;stroke:#000000;stroke-linecap:square;stroke-linejoin:miter;stroke-width:0.8;"/>
   </g>
  </g>
  <g id="axes_3">
   <g id="patch_91">
    <path d="M 774.211765 252 
L 1036.8 252 
L 1036.8 34.56 
L 774.211765 34.56 
z
" style="fill:#ffffff;"/>
   </g>
   <g id="patch_92">
    <path clip-path="url(#p78aca422e5)" d="M 797.753758 252 
L 802.063843 252 
L 802.063843 156.254591 
L 797.753758 156.254591 
z
" style="fill:#1f77b4;opacity:0.4;"/>
   </g>
   <g id="patch_93">
    <path clip-path="url(#p78aca422e5)" d="M 802.063843 252 
L 806.373928 252 
L 806.373928 246.55992 
L 802.063843 246.55992 
z
" style="fill:#1f77b4;opacity:0.4;"/>
   </g>
   <g id="patch_94">
    <path clip-path="url(#p78aca422e5)" d="M 806.373928 252 
L 810.684013 252 
L 810.684013 250.911984 
L 806.373928 250.911984 
z
" style="fill:#1f77b4;opacity:0.4;"/>
   </g>
   <g id="patch_95">
    <path clip-path="url(#p78aca422e5)" d="M 810.684013 252 
L 814.994098 252 
L 814.994098 251.637328 
L 810.684013 251.637328 
z
" style="fill:#1f77b4;opacity:0.4;"/>
   </g>
   <g id="patch_96">
    <path clip-path="url(#p78aca422e5)" d="M 814.994098 252 
L 819.304183 252 
L 819.304183 252 
L 814.994098 252 
z
" style="fill:#1f77b4;opacity:0.4;"/>
   </g>
   <g id="patch_97">
    <path clip-path="url(#p78aca422e5)" d="M 819.304183 252 
L 823.614268 252 
L 823.614268 252 
L 819.304183 252 
z
" style="fill:#1f77b4;opacity:0.4;"/>
   </g>
   <g id="patch_98">
    <path clip-path="url(#p78aca422e5)" d="M 823.614268 252 
L 827.924353 252 
L 827.924353 252 
L 823.614268 252 
z
" style="fill:#1f77b4;opacity:0.4;"/>
   </g>
   <g id="patch_99">
    <path clip-path="url(#p78aca422e5)" d="M 827.924353 252 
L 832.234438 252 
L 832.234438 252 
L 827.924353 252 
z
" style="fill:#1f77b4;opacity:0.4;"/>
   </g>
   <g id="patch_100">
    <path clip-path="url(#p78aca422e5)" d="M 832.234438 252 
L 836.544523 252 
L 836.544523 252 
L 832.234438 252 
z
" style="fill:#1f77b4;opacity:0.4;"/>
   </g>
   <g id="patch_101">
    <path clip-path="url(#p78aca422e5)" d="M 836.544523 252 
L 840.854607 252 
L 840.854607 252 
L 836.544523 252 
z
" style="fill:#1f77b4;opacity:0.4;"/>
   </g>
   <g id="patch_102">
    <path clip-path="url(#p78aca422e5)" d="M 840.854607 252 
L 845.164692 252 
L 845.164692 252 
L 840.854607 252 
z
" style="fill:#1f77b4;opacity:0.4;"/>
   </g>
   <g id="patch_103">
    <path clip-path="url(#p78aca422e5)" d="M 845.164692 252 
L 849.474777 252 
L 849.474777 252 
L 845.164692 252 
z
" style="fill:#1f77b4;opacity:0.4;"/>
   </g>
   <g id="patch_104">
    <path clip-path="url(#p78aca422e5)" d="M 849.474777 252 
L 853.784862 252 
L 853.784862 252 
L 849.474777 252 
z
" style="fill:#1f77b4;opacity:0.4;"/>
   </g>
   <g id="patch_105">
    <path clip-path="url(#p78aca422e5)" d="M 853.784862 252 
L 858.094947 252 
L 858.094947 251.637328 
L 853.784862 251.637328 
z
" style="fill:#1f77b4;opacity:0.4;"/>
   </g>
   <g id="patch_106">
    <path clip-path="url(#p78aca422e5)" d="M 858.094947 252 
L 862.405032 252 
L 862.405032 252 
L 858.094947 252 
z
" style="fill:#1f77b4;opacity:0.4;"/>
   </g>
   <g id="patch_107">
    <path clip-path="url(#p78aca422e5)" d="M 862.405032 252 
L 866.715117 252 
L 866.715117 252 
L 862.405032 252 
z
" style="fill:#1f77b4;opacity:0.4;"/>
   </g>
   <g id="patch_108">
    <path clip-path="url(#p78aca422e5)" d="M 866.715117 252 
L 871.025202 252 
L 871.025202 250.911984 
L 866.715117 250.911984 
z
" style="fill:#1f77b4;opacity:0.4;"/>
   </g>
   <g id="patch_109">
    <path clip-path="url(#p78aca422e5)" d="M 871.025202 252 
L 875.335287 252 
L 875.335287 251.274656 
L 871.025202 251.274656 
z
" style="fill:#1f77b4;opacity:0.4;"/>
   </g>
   <g id="patch_110">
    <path clip-path="url(#p78aca422e5)" d="M 875.335287 252 
L 879.645372 252 
L 879.645372 250.911984 
L 875.335287 250.911984 
z
" style="fill:#1f77b4;opacity:0.4;"/>
   </g>
   <g id="patch_111">
    <path clip-path="url(#p78aca422e5)" d="M 879.645372 252 
L 883.955457 252 
L 883.955457 249.823968 
L 879.645372 249.823968 
z
" style="fill:#1f77b4;opacity:0.4;"/>
   </g>
   <g id="patch_112">
    <path clip-path="url(#p78aca422e5)" d="M 883.955457 252 
L 888.265542 252 
L 888.265542 248.010608 
L 883.955457 248.010608 
z
" style="fill:#1f77b4;opacity:0.4;"/>
   </g>
   <g id="patch_113">
    <path clip-path="url(#p78aca422e5)" d="M 888.265542 252 
L 892.575627 252 
L 892.575627 244.021216 
L 888.265542 244.021216 
z
" style="fill:#1f77b4;opacity:0.4;"/>
   </g>
   <g id="patch_114">
    <path clip-path="url(#p78aca422e5)" d="M 892.575627 252 
L 896.885712 252 
L 896.885712 244.383888 
L 892.575627 244.383888 
z
" style="fill:#1f77b4;opacity:0.4;"/>
   </g>
   <g id="patch_115">
    <path clip-path="url(#p78aca422e5)" d="M 896.885712 252 
L 901.195797 252 
L 901.195797 244.021216 
L 896.885712 244.021216 
z
" style="fill:#1f77b4;opacity:0.4;"/>
   </g>
   <g id="patch_116">
    <path clip-path="url(#p78aca422e5)" d="M 901.195797 252 
L 905.505882 252 
L 905.505882 233.8664 
L 901.195797 233.8664 
z
" style="fill:#1f77b4;opacity:0.4;"/>
   </g>
   <g id="patch_117">
    <path clip-path="url(#p78aca422e5)" d="M 905.505882 252 
L 909.815967 252 
L 909.815967 227.338304 
L 905.505882 227.338304 
z
" style="fill:#1f77b4;opacity:0.4;"/>
   </g>
   <g id="patch_118">
    <path clip-path="url(#p78aca422e5)" d="M 909.815967 252 
L 914.126052 252 
L 914.126052 213.556768 
L 909.815967 213.556768 
z
" style="fill:#1f77b4;opacity:0.4;"/>
   </g>
   <g id="patch_119">
    <path clip-path="url(#p78aca422e5)" d="M 914.126052 252 
L 918.436137 252 
L 918.436137 190.345759 
L 914.126052 190.345759 
z
" style="fill:#1f77b4;opacity:0.4;"/>
   </g>
   <g id="patch_120">
    <path clip-path="url(#p78aca422e5)" d="M 918.436137 252 
L 922.746222 252 
L 922.746222 164.958719 
L 918.436137 164.958719 
z
" style="fill:#1f77b4;opacity:0.4;"/>
   </g>
   <g id="patch_121">
    <path clip-path="url(#p78aca422e5)" d="M 922.746222 252 
L 927.056307 252 
L 927.056307 155.166575 
L 922.746222 155.166575 
z
" style="fill:#1f77b4;opacity:0.4;"/>
   </g>
   <g id="patch_122">
    <path clip-path="url(#p78aca422e5)" d="M 927.056307 252 
L 931.366392 252 
L 931.366392 131.592895 
L 927.056307 131.592895 
z
" style="fill:#1f77b4;opacity:0.4;"/>
   </g>
   <g id="patch_123">
    <path clip-path="url(#p78aca422e5)" d="M 931.366392 252 
L 935.676477 252 
L 935.676477 106.205854 
L 931.366392 106.205854 
z
" style="fill:#1f77b4;opacity:0.4;"/>
   </g>
   <g id="patch_124">
    <path clip-path="url(#p78aca422e5)" d="M 935.676477 252 
L 939.986562 252 
L 939.986562 90.610958 
L 935.676477 90.610958 
z
" style="fill:#1f77b4;opacity:0.4;"/>
   </g>
   <g id="patch_125">
    <path clip-path="url(#p78aca422e5)" d="M 939.986562 252 
L 944.296647 252 
L 944.296647 88.434926 
L 939.986562 88.434926 
z
" style="fill:#1f77b4;opacity:0.4;"/>
   </g>
   <g id="patch_126">
    <path clip-path="url(#p78aca422e5)" d="M 944.296647 252 
L 948.606732 252 
L 948.606732 44.914286 
L 944.296647 44.914286 
z
" style="fill:#1f77b4;opacity:0.4;"/>
   </g>
   <g id="patch_127">
    <path clip-path="url(#p78aca422e5)" d="M 948.606732 252 
L 952.916817 252 
L 952.916817 80.09347 
L 948.606732 80.09347 
z
" style="fill:#1f77b4;opacity:0.4;"/>
   </g>
   <g id="patch_128">
    <path clip-path="url(#p78aca422e5)" d="M 952.916817 252 
L 957.226902 252 
L 957.226902 84.808206 
L 952.916817 84.808206 
z
" style="fill:#1f77b4;opacity:0.4;"/>
   </g>
   <g id="patch_129">
    <path clip-path="url(#p78aca422e5)" d="M 957.226902 252 
L 961.536987 252 
L 961.536987 109.10723 
L 957.226902 109.10723 
z
" style="fill:#1f77b4;opacity:0.4;"/>
   </g>
   <g id="patch_130">
    <path clip-path="url(#p78aca422e5)" d="M 961.536987 252 
L 965.847072 252 
L 965.847072 120.350063 
L 961.536987 120.350063 
z
" style="fill:#1f77b4;opacity:0.4;"/>
   </g>
   <g id="patch_131">
    <path clip-path="url(#p78aca422e5)" d="M 965.847072 252 
L 970.157157 252 
L 970.157157 167.497423 
L 965.847072 167.497423 
z
" style="fill:#1f77b4;opacity:0.4;"/>
   </g>
   <g id="patch_132">
    <path clip-path="url(#p78aca422e5)" d="M 970.157157 252 
L 974.467242 252 
L 974.467242 194.335151 
L 970.157157 194.335151 
z
" style="fill:#1f77b4;opacity:0.4;"/>
   </g>
   <g id="patch_133">
    <path clip-path="url(#p78aca422e5)" d="M 974.467242 252 
L 978.777327 252 
L 978.777327 196.148511 
L 974.467242 196.148511 
z
" style="fill:#1f77b4;opacity:0.4;"/>
   </g>
   <g id="patch_134">
    <path clip-path="url(#p78aca422e5)" d="M 978.777327 252 
L 983.087412 252 
L 983.087412 215.370128 
L 978.777327 215.370128 
z
" style="fill:#1f77b4;opacity:0.4;"/>
   </g>
   <g id="patch_135">
    <path clip-path="url(#p78aca422e5)" d="M 983.087412 252 
L 987.397497 252 
L 987.397497 230.602352 
L 983.087412 230.602352 
z
" style="fill:#1f77b4;opacity:0.4;"/>
   </g>
   <g id="patch_136">
    <path clip-path="url(#p78aca422e5)" d="M 987.397497 252 
L 991.707582 252 
L 991.707582 241.845184 
L 987.397497 241.845184 
z
" style="fill:#1f77b4;opacity:0.4;"/>
   </g>
   <g id="patch_137">
    <path clip-path="url(#p78aca422e5)" d="M 991.707582 252 
L 996.017667 252 
L 996.017667 244.383888 
L 991.707582 244.383888 
z
" style="fill:#1f77b4;opacity:0.4;"/>
   </g>
   <g id="patch_138">
    <path clip-path="url(#p78aca422e5)" d="M 996.017667 252 
L 1000.327752 252 
L 1000.327752 246.922592 
L 996.017667 246.922592 
z
" style="fill:#1f77b4;opacity:0.4;"/>
   </g>
   <g id="patch_139">
    <path clip-path="url(#p78aca422e5)" d="M 1000.327752 252 
L 1004.637837 252 
L 1004.637837 248.735952 
L 1000.327752 248.735952 
z
" style="fill:#1f77b4;opacity:0.4;"/>
   </g>
   <g id="patch_140">
    <path clip-path="url(#p78aca422e5)" d="M 1004.637837 252 
L 1008.947922 252 
L 1008.947922 251.274656 
L 1004.637837 251.274656 
z
" style="fill:#1f77b4;opacity:0.4;"/>
   </g>
   <g id="patch_141">
    <path clip-path="url(#p78aca422e5)" d="M 1008.947922 252 
L 1013.258007 252 
L 1013.258007 251.274656 
L 1008.947922 251.274656 
z
" style="fill:#1f77b4;opacity:0.4;"/>
   </g>
   <g id="matplotlib.axis_5">
    <g id="xtick_13">
     <g id="line2d_27">
      <g>
       <use style="stroke:#000000;stroke-width:0.8;" x="791.700267" xlink:href="#m13bddc65b0" y="252"/>
      </g>
     </g>
     <g id="text_27">
      <!-- 0 -->
      <g transform="translate(788.519017 266.598437)scale(0.1 -0.1)">
       <use xlink:href="#DejaVuSans-30"/>
      </g>
     </g>
    </g>
    <g id="xtick_14">
     <g id="line2d_28">
      <g>
       <use style="stroke:#000000;stroke-width:0.8;" x="840.128189" xlink:href="#m13bddc65b0" y="252"/>
      </g>
     </g>
     <g id="text_28">
      <!-- 200 -->
      <g transform="translate(830.584439 266.598437)scale(0.1 -0.1)">
       <use xlink:href="#DejaVuSans-32"/>
       <use x="63.623047" xlink:href="#DejaVuSans-30"/>
       <use x="127.246094" xlink:href="#DejaVuSans-30"/>
      </g>
     </g>
    </g>
    <g id="xtick_15">
     <g id="line2d_29">
      <g>
       <use style="stroke:#000000;stroke-width:0.8;" x="888.55611" xlink:href="#m13bddc65b0" y="252"/>
      </g>
     </g>
     <g id="text_29">
      <!-- 400 -->
      <g transform="translate(879.01236 266.598437)scale(0.1 -0.1)">
       <use xlink:href="#DejaVuSans-34"/>
       <use x="63.623047" xlink:href="#DejaVuSans-30"/>
       <use x="127.246094" xlink:href="#DejaVuSans-30"/>
      </g>
     </g>
    </g>
    <g id="xtick_16">
     <g id="line2d_30">
      <g>
       <use style="stroke:#000000;stroke-width:0.8;" x="936.984031" xlink:href="#m13bddc65b0" y="252"/>
      </g>
     </g>
     <g id="text_30">
      <!-- 600 -->
      <g transform="translate(927.440281 266.598437)scale(0.1 -0.1)">
       <use xlink:href="#DejaVuSans-36"/>
       <use x="63.623047" xlink:href="#DejaVuSans-30"/>
       <use x="127.246094" xlink:href="#DejaVuSans-30"/>
      </g>
     </g>
    </g>
    <g id="xtick_17">
     <g id="line2d_31">
      <g>
       <use style="stroke:#000000;stroke-width:0.8;" x="985.411952" xlink:href="#m13bddc65b0" y="252"/>
      </g>
     </g>
     <g id="text_31">
      <!-- 800 -->
      <g transform="translate(975.868202 266.598437)scale(0.1 -0.1)">
       <use xlink:href="#DejaVuSans-38"/>
       <use x="63.623047" xlink:href="#DejaVuSans-30"/>
       <use x="127.246094" xlink:href="#DejaVuSans-30"/>
      </g>
     </g>
    </g>
    <g id="xtick_18">
     <g id="line2d_32">
      <g>
       <use style="stroke:#000000;stroke-width:0.8;" x="1033.839874" xlink:href="#m13bddc65b0" y="252"/>
      </g>
     </g>
     <g id="text_32">
      <!-- 1000 -->
      <g transform="translate(1021.114874 266.598437)scale(0.1 -0.1)">
       <use xlink:href="#DejaVuSans-31"/>
       <use x="63.623047" xlink:href="#DejaVuSans-30"/>
       <use x="127.246094" xlink:href="#DejaVuSans-30"/>
       <use x="190.869141" xlink:href="#DejaVuSans-30"/>
      </g>
     </g>
    </g>
    <g id="text_33">
     <!-- n_estimators -->
     <g transform="translate(873.192601 280.276563)scale(0.1 -0.1)">
      <use xlink:href="#DejaVuSans-6e"/>
      <use x="63.378906" xlink:href="#DejaVuSans-5f"/>
      <use x="113.378906" xlink:href="#DejaVuSans-65"/>
      <use x="174.902344" xlink:href="#DejaVuSans-73"/>
      <use x="227.001953" xlink:href="#DejaVuSans-74"/>
      <use x="266.210938" xlink:href="#DejaVuSans-69"/>
      <use x="293.994141" xlink:href="#DejaVuSans-6d"/>
      <use x="391.40625" xlink:href="#DejaVuSans-61"/>
      <use x="452.685547" xlink:href="#DejaVuSans-74"/>
      <use x="491.894531" xlink:href="#DejaVuSans-6f"/>
      <use x="553.076172" xlink:href="#DejaVuSans-72"/>
      <use x="594.189453" xlink:href="#DejaVuSans-73"/>
     </g>
    </g>
   </g>
   <g id="matplotlib.axis_6">
    <g id="ytick_13">
     <g id="line2d_33">
      <g>
       <use style="stroke:#000000;stroke-width:0.8;" x="774.211765" xlink:href="#m644abed071" y="252"/>
      </g>
     </g>
     <g id="text_34">
      <!-- 0.000 -->
      <g transform="translate(738.58364 255.799219)scale(0.1 -0.1)">
       <use xlink:href="#DejaVuSans-30"/>
       <use x="63.623047" xlink:href="#DejaVuSans-2e"/>
       <use x="95.410156" xlink:href="#DejaVuSans-30"/>
       <use x="159.033203" xlink:href="#DejaVuSans-30"/>
       <use x="222.65625" xlink:href="#DejaVuSans-30"/>
      </g>
     </g>
    </g>
    <g id="ytick_14">
     <g id="line2d_34">
      <g>
       <use style="stroke:#000000;stroke-width:0.8;" x="774.211765" xlink:href="#m644abed071" y="213.589408"/>
      </g>
     </g>
     <g id="text_35">
      <!-- 0.001 -->
      <g transform="translate(738.58364 217.388627)scale(0.1 -0.1)">
       <use xlink:href="#DejaVuSans-30"/>
       <use x="63.623047" xlink:href="#DejaVuSans-2e"/>
       <use x="95.410156" xlink:href="#DejaVuSans-30"/>
       <use x="159.033203" xlink:href="#DejaVuSans-30"/>
       <use x="222.65625" xlink:href="#DejaVuSans-31"/>
      </g>
     </g>
    </g>
    <g id="ytick_15">
     <g id="line2d_35">
      <g>
       <use style="stroke:#000000;stroke-width:0.8;" x="774.211765" xlink:href="#m644abed071" y="175.178816"/>
      </g>
     </g>
     <g id="text_36">
      <!-- 0.002 -->
      <g transform="translate(738.58364 178.978035)scale(0.1 -0.1)">
       <use xlink:href="#DejaVuSans-30"/>
       <use x="63.623047" xlink:href="#DejaVuSans-2e"/>
       <use x="95.410156" xlink:href="#DejaVuSans-30"/>
       <use x="159.033203" xlink:href="#DejaVuSans-30"/>
       <use x="222.65625" xlink:href="#DejaVuSans-32"/>
      </g>
     </g>
    </g>
    <g id="ytick_16">
     <g id="line2d_36">
      <g>
       <use style="stroke:#000000;stroke-width:0.8;" x="774.211765" xlink:href="#m644abed071" y="136.768224"/>
      </g>
     </g>
     <g id="text_37">
      <!-- 0.003 -->
      <g transform="translate(738.58364 140.567443)scale(0.1 -0.1)">
       <use xlink:href="#DejaVuSans-30"/>
       <use x="63.623047" xlink:href="#DejaVuSans-2e"/>
       <use x="95.410156" xlink:href="#DejaVuSans-30"/>
       <use x="159.033203" xlink:href="#DejaVuSans-30"/>
       <use x="222.65625" xlink:href="#DejaVuSans-33"/>
      </g>
     </g>
    </g>
    <g id="ytick_17">
     <g id="line2d_37">
      <g>
       <use style="stroke:#000000;stroke-width:0.8;" x="774.211765" xlink:href="#m644abed071" y="98.357632"/>
      </g>
     </g>
     <g id="text_38">
      <!-- 0.004 -->
      <g transform="translate(738.58364 102.156851)scale(0.1 -0.1)">
       <use xlink:href="#DejaVuSans-30"/>
       <use x="63.623047" xlink:href="#DejaVuSans-2e"/>
       <use x="95.410156" xlink:href="#DejaVuSans-30"/>
       <use x="159.033203" xlink:href="#DejaVuSans-30"/>
       <use x="222.65625" xlink:href="#DejaVuSans-34"/>
      </g>
     </g>
    </g>
    <g id="ytick_18">
     <g id="line2d_38">
      <g>
       <use style="stroke:#000000;stroke-width:0.8;" x="774.211765" xlink:href="#m644abed071" y="59.94704"/>
      </g>
     </g>
     <g id="text_39">
      <!-- 0.005 -->
      <g transform="translate(738.58364 63.746259)scale(0.1 -0.1)">
       <use xlink:href="#DejaVuSans-30"/>
       <use x="63.623047" xlink:href="#DejaVuSans-2e"/>
       <use x="95.410156" xlink:href="#DejaVuSans-30"/>
       <use x="159.033203" xlink:href="#DejaVuSans-30"/>
       <use x="222.65625" xlink:href="#DejaVuSans-35"/>
      </g>
     </g>
    </g>
   </g>
   <g id="line2d_39">
    <path clip-path="url(#p78aca422e5)" d="M 786.147594 251.586079 
L 788.027252 250.412328 
L 789.90691 247.171442 
L 791.786568 240.355989 
L 793.666226 229.69846 
L 795.545884 217.977013 
L 797.425542 210.462114 
L 799.3052 211.121774 
L 801.184858 219.21693 
L 803.064516 230.226188 
L 804.944174 239.734491 
L 806.823833 245.930136 
L 808.703491 249.222568 
L 810.583149 250.745229 
L 812.462807 251.409447 
L 814.342465 251.711426 
L 818.101781 251.940794 
L 825.620413 251.99967 
L 851.935627 251.897704 
L 857.574601 251.842815 
L 861.333917 251.832814 
L 865.093233 251.597316 
L 870.732208 251.180357 
L 876.371182 250.817283 
L 878.25084 250.550116 
L 880.130498 250.106568 
L 882.010156 249.434805 
L 883.889814 248.543803 
L 887.64913 246.504343 
L 889.528789 245.655687 
L 891.408447 245.05762 
L 893.288105 244.624739 
L 895.167763 244.064784 
L 897.047421 242.977723 
L 898.927079 241.071353 
L 900.806737 238.34126 
L 902.686395 235.035211 
L 904.566053 231.409903 
L 906.445711 227.503501 
L 908.325369 223.085434 
L 910.205028 217.721159 
L 912.084686 210.907654 
L 913.964344 202.384696 
L 919.603318 172.633467 
L 921.482976 164.072588 
L 927.12195 141.12318 
L 929.001608 132.587508 
L 932.760925 113.83791 
L 934.640583 105.530621 
L 936.520241 98.913664 
L 938.399899 93.108526 
L 940.279557 86.403545 
L 944.038873 70.239616 
L 945.918531 65.547812 
L 947.798189 65.949278 
L 949.677847 70.756068 
L 959.076138 105.542628 
L 960.955796 113.973913 
L 962.835454 124.536673 
L 964.715112 137.270013 
L 968.474428 164.561861 
L 970.354086 176.135851 
L 972.233745 185.307301 
L 974.113403 192.474656 
L 985.391351 229.241348 
L 987.271009 234.261214 
L 989.150667 238.25317 
L 991.030325 241.177945 
L 992.909984 243.269966 
L 994.789642 244.850089 
L 996.6693 246.141775 
L 998.548958 247.24021 
L 1002.308274 249.017893 
L 1006.06759 250.388446 
L 1007.947248 250.87298 
L 1011.706564 251.442237 
L 1017.345539 251.864065 
L 1022.984513 251.978265 
L 1024.864171 251.912729 
L 1024.864171 251.912729 
" style="fill:none;stroke:#1f77b4;stroke-linecap:square;stroke-width:1.5;"/>
   </g>
   <g id="patch_142">
    <path d="M 774.211765 252 
L 774.211765 34.56 
" style="fill:none;stroke:#000000;stroke-linecap:square;stroke-linejoin:miter;stroke-width:0.8;"/>
   </g>
   <g id="patch_143">
    <path d="M 1036.8 252 
L 1036.8 34.56 
" style="fill:none;stroke:#000000;stroke-linecap:square;stroke-linejoin:miter;stroke-width:0.8;"/>
   </g>
   <g id="patch_144">
    <path d="M 774.211765 252 
L 1036.8 252 
" style="fill:none;stroke:#000000;stroke-linecap:square;stroke-linejoin:miter;stroke-width:0.8;"/>
   </g>
   <g id="patch_145">
    <path d="M 774.211765 34.56 
L 1036.8 34.56 
" style="fill:none;stroke:#000000;stroke-linecap:square;stroke-linejoin:miter;stroke-width:0.8;"/>
   </g>
  </g>
 </g>
 <defs>
  <clipPath id="p4eb7c5073d">
   <rect height="217.44" width="262.588235" x="144" y="34.56"/>
  </clipPath>
  <clipPath id="p3a30b8d8dc">
   <rect height="217.44" width="262.588235" x="459.105882" y="34.56"/>
  </clipPath>
  <clipPath id="p78aca422e5">
   <rect height="217.44" width="262.588235" x="774.211765" y="34.56"/>
  </clipPath>
 </defs>
</svg>
